<svg version="1.0" xmlns="http://www.w3.org/2000/svg" width="263px" height="450px" viewBox="0 0 7000 12000" preserveAspectRatio="xMidYMid meet">
<g id="layer101" fill="#000000" stroke="none">
 <path d="M0 6000 l0 -6000 3500 0 3500 0 0 6000 0 6000 -3500 0 -3500 0 0 -6000z"/>
 </g>
<g id="layer102" fill="#00FFFF" stroke="none">
 <path d="M3347 11931 c58 -55 74 -77 86 -119 12 -37 13 -61 6 -84 -13 -47 -13 -48 31 -48 l41 0 -16 30 c-10 20 -15 58 -15 120 l0 91 63 39 62 40 -165 -1 -165 0 72 -68z"/>
 <!--牙肉-->
 <path d="M3398 11618 c-20 -39 -41 -120 -62 -238 -21 -127 -63 -194 -148 -243 l-67 -39 -51 17 c-58 19 -117 66 -132 104 -5 14 -21 67 -35 116 -15 50 -39 118 -54 153 -26 57 -31 62 -60 62 -30 0 -31 -1 -24 -32 4 -18 9 -79 12 -136 6 -132 -13 -219 -65 -291 l-37 -50 -60 0 c-57 0 -63 2 -123 50 -34 27 -87 82 -116 122 -60 80 -134 155 -121 122 19 -47 74 -324 75 -370 0 -28 -9 -69 -19 -91 -11 -23 -25 -67 -32 -99 -8 -35 -20 -62 -33 -71 -33 -23 -100 -17 -173 16 -51 23 -80 30 -129 30 l-64 0 35 -46 c75 -98 94 -176 75 -308 l-12 -85 -51 -39 c-80 -59 -161 -102 -194 -102 -17 0 -50 7 -73 15 -23 8 -45 15 -47 15 -3 0 27 -30 67 -67 40 -37 94 -96 121 -132 44 -57 49 -69 49 -116 0 -28 -7 -74 -15 -102 -13 -43 -23 -56 -63 -82 -62 -40 -123 -62 -197 -71 -59 -7 -59 -7 -30 -19 22 -8 40 -30 68 -81 49 -91 67 -171 67 -303 0 -119 -12 -157 -67 -209 -15 -15 -57 -86 -92 -157 l-65 -130 -75 -35 c-42 -19 -95 -40 -118 -46 -24 -6 -43 -12 -43 -14 0 -1 33 -19 73 -40 103 -53 105 -55 122 -135 13 -64 13 -83 0 -174 -15 -102 -58 -255 -95 -341 -15 -37 -28 -50 -72 -72 -29 -14 -55 -28 -57 -30 -1 -1 14 -21 35 -44 57 -62 77 -119 72 -210 -5 -88 -38 -169 -97 -234 -21 -22 -50 -63 -66 -91 -34 -60 -76 -116 -124 -167 l-35 -38 -107 0 c-130 0 -158 9 -298 97 -146 91 -220 153 -277 231 -42 57 -51 77 -65 152 l-17 85 53 105 c70 139 90 157 207 185 l93 22 -67 65 c-58 57 -69 72 -82 125 -27 102 -21 180 19 280 33 81 35 94 36 202 0 84 5 128 17 161 17 43 19 45 92 67 41 13 99 23 129 23 48 0 52 2 40 16 -7 9 -44 30 -82 47 -59 26 -73 38 -103 85 -19 29 -37 67 -41 83 -3 16 -9 32 -14 34 -4 3 -22 -32 -39 -77 -24 -63 -45 -96 -84 -138 -60 -63 -71 -100 -81 -275 -3 -55 -12 -146 -20 -202 -13 -93 -13 -115 5 -249 l18 -148 -20 -55 c-12 -31 -34 -75 -50 -99 -50 -74 -96 -184 -109 -263 -11 -68 -10 -91 15 -250 35 -229 55 -297 116 -398 45 -75 58 -89 128 -134 116 -75 172 -97 245 -97 34 0 95 -7 135 -17 70 -16 73 -16 135 5 34 11 82 26 105 32 71 18 220 117 256 169 17 25 40 53 51 63 11 9 36 30 55 46 19 17 41 47 49 68 8 22 27 58 42 81 29 41 29 44 29 183 0 113 6 179 31 323 33 192 45 224 139 387 32 55 41 84 59 191 12 70 21 160 21 200 0 51 7 91 21 129 11 30 36 127 56 215 37 170 56 231 101 323 17 32 35 92 42 137 8 52 24 103 46 145 29 54 34 75 34 130 0 100 20 316 37 400 8 41 18 91 20 111 4 29 21 52 85 115 44 43 134 153 200 244 135 184 293 354 347 371 62 21 218 97 285 139 126 79 204 96 302 64 64 -22 66 -24 88 -83 17 -47 17 -55 2 -120 -11 -50 -16 -121 -16 -245 0 -171 1 -177 30 -250 16 -41 36 -116 45 -168 9 -51 29 -133 46 -182 16 -48 32 -106 35 -127 4 -22 10 -39 14 -39 19 0 22 142 6 338 -10 130 -16 322 -16 515 l0 307 30 0 c16 0 52 9 80 20 74 29 116 26 175 -14 54 -36 177 -90 321 -140 149 -53 248 -113 340 -208 44 -46 103 -119 129 -163 27 -44 84 -116 127 -161 l78 -81 34 -159 c45 -206 83 -306 162 -421 l64 -93 1 -87 c0 -49 4 -110 10 -138 5 -27 13 -120 18 -205 14 -238 53 -349 166 -468 113 -120 185 -321 185 -517 0 -38 7 -95 15 -125 8 -30 15 -85 15 -123 0 -61 4 -73 41 -135 64 -103 68 -113 95 -234 14 -62 41 -156 59 -209 44 -127 145 -327 208 -412 47 -65 56 -72 168 -128 l119 -59 150 0 c143 0 153 1 225 30 41 16 107 54 147 83 70 52 158 138 158 154 0 5 9 52 20 106 16 81 20 135 19 295 -2 164 -3 186 -11 132 -9 -67 -25 -129 -38 -150 -8 -12 -291 -136 -379 -165 -83 -27 -138 -15 -351 78 -36 16 -134 111 -163 159 -13 21 -17 52 -17 132 0 58 -5 128 -11 157 -15 70 3 147 43 185 29 29 24 44 -16 44 -23 0 -76 48 -76 68 0 8 -22 44 -49 81 -68 93 -81 153 -81 375 l0 175 45 32 46 33 -43 11 c-51 14 -228 79 -257 95 -21 11 -78 90 -118 163 -22 40 -23 51 -23 287 0 261 7 316 50 385 12 20 21 38 19 40 -2 2 -31 8 -63 14 -67 12 -132 50 -193 113 -36 38 -45 57 -72 155 -40 144 -41 219 -6 280 l26 43 -39 0 c-50 0 -119 51 -189 139 l-53 66 0 82 0 83 -29 -6 c-16 -4 -32 -1 -35 5 -4 6 -22 11 -39 11 -45 1 -70 24 -111 107 l-36 73 0 175 0 176 34 88 c19 49 42 104 51 121 14 27 15 34 3 41 -21 14 -25 11 -54 -38 -45 -78 -161 -206 -253 -280 -47 -38 -59 -43 -105 -43 -49 0 -54 3 -104 53 l-52 53 0 207 0 207 -43 0 -43 0 -18 -57 c-10 -32 -34 -83 -54 -113 -91 -137 -108 -155 -193 -204 -83 -49 -83 -49 -123 -34 -39 14 -40 15 -84 144 -36 102 -46 147 -50 214 -2 47 -9 91 -14 98 -6 7 -34 12 -67 12 -54 0 -57 -2 -73 -32z"/>
 <path d="M1568 11044 c-24 -49 -44 -92 -46 -96 -2 -5 9 -8 25 -8 16 0 34 -5 41 -12 10 -10 11 -6 7 17 -3 17 1 64 9 105 7 41 12 77 10 79 -1 2 -22 -37 -46 -85z"/>
 <path d="M2190 11451 c0 -5 7 -15 17 -22 15 -13 15 -12 4 9 -12 23 -21 28 -21 13z"/>
 <path d="M3130 10957 c-30 -13 -81 -40 -113 -61 -52 -33 -241 -124 -292 -140 -39 -12 -183 -173 -310 -346 -70 -96 -160 -209 -200 -250 -68 -70 -73 -80 -93 -155 -23 -87 -52 -344 -52 -461 0 -65 -4 -82 -34 -138 -23 -43 -38 -91 -47 -143 -7 -44 -24 -103 -41 -135 -46 -94 -66 -155 -94 -293 -14 -71 -36 -164 -49 -205 -14 -46 -25 -113 -29 -175 -8 -156 -48 -325 -95 -404 -72 -122 -99 -185 -110 -259 -6 -40 -20 -119 -31 -175 -14 -73 -20 -144 -20 -250 0 -134 -2 -152 -21 -178 -11 -16 -33 -57 -49 -93 -22 -49 -40 -71 -78 -98 -27 -20 -62 -56 -78 -82 -22 -36 -53 -62 -129 -110 -55 -35 -116 -67 -135 -71 -19 -4 -70 -20 -114 -36 l-78 -28 -71 19 c-40 11 -101 20 -137 20 -79 1 -141 25 -255 98 -93 60 -94 59 -76 -58 6 -38 11 -133 11 -212 0 -79 5 -163 11 -188 6 -25 19 -102 30 -173 22 -145 20 -161 -42 -292 -29 -62 -34 -83 -40 -185 -7 -116 -11 -153 -31 -245 -10 -49 -62 -238 -75 -272 -5 -12 6 -7 30 14 70 62 185 132 233 144 27 7 67 23 90 35 37 22 52 24 174 24 122 0 140 -2 214 -29 45 -16 137 -48 206 -70 l125 -40 66 -73 c60 -67 68 -82 97 -174 31 -98 32 -108 32 -275 0 -167 2 -179 34 -295 33 -120 76 -205 125 -248 68 -61 125 -217 152 -411 6 -49 33 -160 60 -245 55 -180 79 -349 79 -562 0 -179 28 -276 122 -425 57 -91 138 -342 138 -430 0 -40 10 -105 27 -166 26 -99 26 -99 82 -140 31 -23 64 -52 75 -65 10 -13 57 -52 105 -88 71 -53 101 -84 172 -181 47 -65 101 -128 120 -140 19 -12 54 -38 79 -58 63 -51 235 -116 330 -125 41 -4 88 -12 103 -19 16 -6 64 -11 108 -11 76 0 82 2 110 29 33 33 34 49 14 141 -7 36 -22 183 -31 326 -18 258 -17 266 4 630 12 203 27 452 32 553 6 102 10 710 10 1358 l0 1173 20 0 21 0 -4 -1222 c-3 -986 -7 -1268 -20 -1453 -47 -677 -50 -772 -32 -1038 10 -147 24 -285 36 -337 l19 -89 -21 -35 c-11 -19 -36 -44 -55 -55 -47 -28 -149 -28 -222 -1 -29 11 -75 20 -103 20 -37 0 -82 13 -165 45 -62 25 -117 45 -122 45 -4 0 -21 14 -38 31 -16 17 -45 39 -64 49 -44 23 -79 61 -168 182 -51 69 -91 112 -144 151 -40 30 -89 71 -108 92 -19 20 -60 54 -91 75 l-56 38 -31 124 c-19 71 -32 148 -32 183 0 33 -9 87 -20 120 -61 188 -74 222 -91 246 -35 50 -108 206 -123 266 -11 41 -16 106 -16 199 0 190 -29 399 -75 539 -42 127 -60 205 -70 290 -10 93 -53 240 -86 298 -17 28 -48 70 -69 93 -53 57 -86 119 -105 194 -9 36 -25 94 -36 129 -16 52 -19 94 -19 240 0 167 -1 180 -29 265 -26 80 -36 95 -92 152 -35 35 -77 68 -94 73 -16 5 -101 32 -187 60 l-157 51 -141 0 c-109 0 -148 -4 -172 -16 -17 -9 -52 -22 -77 -30 -77 -22 -224 -127 -261 -185 -18 -27 -37 -49 -44 -49 -19 0 -56 -127 -71 -249 -29 -223 -13 -414 50 -616 19 -60 39 -144 45 -185 12 -81 46 -170 65 -170 6 0 22 11 35 25 13 14 67 54 119 90 53 35 109 80 124 100 l28 35 -75 0 c-86 0 -164 25 -209 68 -16 15 -46 62 -68 104 -35 69 -39 86 -39 151 0 65 4 80 37 142 37 69 61 168 62 250 1 31 10 54 39 92 53 73 132 110 283 133 110 17 119 17 201 1 76 -16 94 -24 150 -68 35 -28 88 -66 118 -86 102 -65 107 -75 126 -224 15 -122 15 -139 0 -245 -12 -81 -21 -117 -34 -127 -34 -27 -118 -61 -152 -62 -32 -1 -33 -1 -10 -8 14 -5 63 -19 110 -31 105 -28 145 -63 200 -170 21 -41 52 -88 69 -104 27 -26 31 -37 31 -81 0 -28 7 -72 16 -98 18 -53 13 -66 -46 -131 -46 -51 -113 -177 -101 -189 5 -5 40 -12 78 -14 58 -5 76 -11 124 -45 76 -52 138 -146 178 -268 42 -128 61 -234 61 -339 0 -116 -19 -176 -67 -218 l-38 -32 66 -1 c63 0 70 -3 127 -45 34 -24 68 -55 76 -67 29 -45 76 -228 76 -297 0 -60 -3 -71 -35 -116 -20 -28 -46 -58 -58 -67 l-22 -18 25 0 c14 0 59 -17 100 -38 70 -36 78 -44 142 -138 l68 -99 0 -72 0 -73 33 0 c17 -1 64 -9 103 -18 87 -21 131 -56 173 -141 38 -75 38 -104 2 -246 -16 -60 -27 -111 -26 -113 2 -2 32 11 66 29 64 32 205 69 265 69 17 0 52 -9 77 -20 44 -19 46 -23 57 -78 16 -79 52 -192 62 -192 5 0 18 20 30 45 15 31 38 56 75 80 53 35 53 35 168 35 115 0 117 0 168 -34 29 -18 69 -51 90 -73 44 -46 98 -155 117 -233 7 -30 15 -59 18 -64 11 -19 22 23 22 86 0 119 64 250 153 314 29 21 84 52 122 70 l70 33 30 -20 c17 -11 40 -25 51 -31 26 -12 134 -199 161 -276 20 -58 32 -68 25 -21 -7 51 27 260 51 307 l22 42 101 0 c86 0 103 -3 118 -19 9 -10 38 -24 64 -31 26 -7 62 -27 81 -44 26 -24 31 -26 22 -9 -18 35 -14 260 5 319 9 27 22 54 28 60 12 12 185 76 259 96 51 13 56 24 36 75 -6 15 -13 52 -15 80 -8 100 91 304 170 351 18 10 56 25 84 32 29 6 55 16 58 21 3 5 -14 37 -37 71 -60 88 -79 144 -79 234 0 71 2 78 39 132 21 31 52 69 67 83 34 31 107 59 152 59 33 0 43 14 17 24 -21 8 -78 101 -104 169 -15 42 -21 80 -21 141 l0 83 74 149 c40 82 76 158 80 169 3 11 32 46 63 76 46 45 70 59 116 72 32 9 65 13 73 10 27 -10 14 12 -20 32 -18 11 -61 40 -95 65 l-60 45 -1 160 c0 125 3 165 15 181 8 12 31 65 51 120 20 54 51 121 69 149 27 42 41 53 86 69 30 10 57 22 61 25 4 4 -15 28 -42 55 -49 48 -50 51 -50 108 0 53 5 68 58 159 31 55 76 130 100 166 35 55 42 74 42 115 0 29 8 65 20 88 l20 40 178 0 c141 0 182 3 198 15 27 20 116 19 189 -4 56 -17 62 -21 84 -67 13 -27 38 -74 56 -104 42 -71 62 -153 79 -323 2 -15 -3 -69 -10 -120 l-13 -91 -63 -61 c-36 -33 -82 -70 -104 -83 -21 -12 -45 -26 -52 -31 -11 -7 -8 -19 13 -62 57 -112 75 -175 75 -264 0 -46 -7 -117 -15 -157 -9 -40 -22 -122 -30 -183 -12 -88 -22 -125 -51 -187 l-37 -77 -67 -15 c-59 -13 -76 -13 -136 0 -38 7 -75 16 -83 19 -28 11 23 -37 60 -55 51 -27 128 -115 168 -193 19 -37 35 -67 37 -67 9 0 87 139 118 210 27 64 42 118 57 215 11 72 27 164 36 207 15 73 15 80 -6 190 l-23 115 22 79 c28 99 71 208 109 276 48 85 91 205 113 311 19 97 19 102 3 191 -24 122 -67 261 -115 372 -22 50 -40 99 -40 108 0 9 -26 48 -57 87 -81 98 -147 133 -288 149 -82 10 -118 10 -167 1 -112 -22 -201 -52 -291 -99 -114 -59 -290 -200 -339 -271 -33 -47 -38 -62 -38 -110 0 -31 -5 -74 -11 -96 -6 -22 -14 -123 -19 -225 -10 -225 -22 -302 -66 -445 -47 -151 -87 -251 -144 -364 -61 -122 -70 -169 -70 -349 0 -114 -5 -164 -20 -222 -11 -41 -20 -91 -20 -110 0 -42 -32 -94 -106 -170 -61 -63 -84 -117 -84 -199 0 -31 -7 -89 -17 -129 -16 -69 -16 -77 0 -137 9 -35 17 -93 17 -129 0 -38 7 -83 16 -107 16 -38 16 -45 -1 -98 -20 -65 -47 -114 -86 -156 -15 -16 -36 -53 -47 -81 -21 -57 -70 -132 -119 -184 -19 -19 -61 -75 -95 -125 -33 -49 -72 -102 -86 -118 -36 -39 -143 -106 -194 -122 -24 -8 -81 -30 -128 -49 -60 -25 -100 -36 -138 -36 -38 0 -69 -8 -112 -30 -33 -17 -72 -30 -87 -30 -15 0 -38 -11 -52 -24 -15 -14 -60 -43 -101 -66 -65 -36 -81 -41 -129 -38 l-54 3 -18 50 c-14 41 -18 87 -18 260 -1 116 -8 334 -16 485 -11 211 -15 576 -16 1565 -1 857 -6 1402 -15 1625 -17 461 -18 550 0 550 10 0 15 -30 20 -132 19 -383 26 -906 28 -2083 2 -833 7 -1384 15 -1535 6 -129 12 -335 12 -456 1 -273 7 -294 76 -294 56 0 133 37 192 91 32 29 51 39 76 39 19 0 64 13 100 30 47 21 82 30 119 30 34 0 74 10 113 26 33 14 89 37 124 50 111 43 176 98 257 221 30 45 76 106 103 135 56 61 90 115 115 178 10 24 33 61 51 81 40 45 51 64 76 137 19 55 19 56 -1 109 -13 35 -20 78 -20 126 0 40 -7 93 -14 119 -13 40 -13 54 0 100 7 29 14 83 14 120 0 98 29 169 100 243 68 71 100 130 100 182 0 21 7 60 15 87 10 34 15 94 15 193 0 179 16 255 80 384 63 126 92 196 135 337 46 149 65 266 65 417 0 75 8 161 20 229 11 60 20 131 20 158 0 66 45 131 152 221 181 151 298 213 478 253 120 26 126 27 234 14 96 -11 121 -18 186 -51 46 -25 85 -53 100 -74 31 -43 40 -44 40 -1 0 18 16 76 35 127 47 126 47 184 1 311 -19 53 -40 133 -46 179 -6 46 -22 128 -35 181 -14 54 -25 126 -25 162 0 84 68 356 109 434 29 55 55 141 45 151 -2 3 -21 -11 -42 -31 -69 -65 -151 -120 -224 -149 -70 -27 -80 -28 -236 -29 l-162 0 -128 65 c-119 60 -130 68 -174 128 -58 80 -171 304 -210 417 -16 47 -45 145 -63 219 -29 111 -43 148 -85 216 -48 80 -50 85 -50 157 0 44 -7 94 -16 119 -9 25 -16 73 -15 109 1 209 -68 409 -187 534 -37 39 -77 93 -90 118 -38 78 -72 230 -72 327 0 47 -7 131 -15 186 -8 55 -15 139 -15 187 0 48 -4 89 -9 92 -5 4 -34 43 -63 89 -65 99 -113 214 -138 333 -50 237 -44 222 -124 308 -41 43 -93 110 -117 149 -109 175 -277 313 -449 367 -47 15 -105 37 -130 50 -24 12 -68 31 -97 41 -29 10 -73 32 -97 48 -54 37 -114 41 -196 12 l-55 -19 -3 -244 c-2 -159 3 -323 14 -477 9 -129 14 -273 11 -320 -6 -88 -37 -304 -43 -298 -2 1 -13 59 -25 127 -11 69 -36 172 -54 230 -19 58 -41 146 -50 195 -9 50 -32 131 -51 180 -33 89 -34 94 -34 242 0 118 5 171 20 237 21 85 21 87 2 130 -17 37 -27 46 -68 60 -64 22 -109 20 -174 -7z"/>
 <path d="M1156 10517 c-13 -13 -26 -41 -30 -63 -4 -21 -19 -58 -33 -82 -13 -24 -23 -46 -20 -48 2 -3 16 0 31 6 36 13 135 13 175 -1 18 -6 35 -9 38 -5 3 3 -12 29 -34 59 -23 29 -53 76 -67 105 -14 29 -29 52 -32 52 -3 0 -15 -10 -28 -23z"/>
 <path d="M5928 10474 c6 -11 20 -28 32 -39 30 -27 87 -152 105 -232 24 -103 20 -176 -12 -226 -15 -23 -36 -53 -47 -66 l-21 -24 32 17 c43 21 79 20 113 -4 34 -25 80 -42 80 -31 0 5 -7 25 -15 44 -8 20 -15 59 -15 87 0 40 -12 78 -55 175 -30 69 -55 129 -55 134 0 14 -107 152 -131 169 -20 14 -20 13 -11 -4z"/>
 <path d="M873 9980 c-17 -25 -45 -58 -63 -75 -48 -45 -115 -136 -128 -173 -11 -32 -10 -32 54 26 62 56 68 59 145 72 l80 13 -25 26 c-20 21 -25 38 -28 91 l-3 65 -32 -45z"/>
 <path d="M6490 9128 c-30 -66 -27 -75 25 -80 l46 -3 -3 60 c-3 54 -5 60 -26 63 -18 3 -26 -5 -42 -40z"/>
 <path d="M6797 8170 c-24 -33 -52 -56 -83 -70 -26 -11 -44 -23 -40 -27 3 -4 12 -1 18 5 7 7 35 12 63 12 44 -1 55 -5 89 -37 46 -42 76 -114 76 -181 1 -40 2 -44 12 -27 23 39 12 107 -37 238 -26 70 -50 129 -54 132 -4 2 -24 -18 -44 -45z"/>
 <path d="M655 3165 c-17 -8 -65 -14 -112 -15 -46 0 -83 -3 -83 -6 0 -26 44 -184 51 -184 4 0 16 15 25 33 9 17 51 67 92 110 77 78 80 86 27 62z"/>
 <path d="M860 2157 c1 -84 4 -102 43 -202 36 -92 58 -129 130 -224 48 -62 104 -141 125 -175 l37 -61 3 90 c3 77 0 91 -14 100 -88 51 -174 187 -174 276 -1 30 -7 65 -15 79 -9 16 -14 54 -15 103 0 76 0 77 -25 77 -14 0 -41 7 -60 14 l-35 15 0 -92z"/>
 <path d="M6104 2163 c3 -10 8 -30 12 -46 5 -21 9 -25 19 -17 22 18 24 60 4 70 -27 15 -41 12 -35 -7z"/>
 <path d="M5386 1108 c10 -34 12 -34 42 -5 l27 27 -38 0 c-35 0 -38 -2 -31 -22z"/>
 <path d="M5796 1616 c20 -36 42 -66 50 -66 14 0 54 78 54 106 0 10 -12 14 -39 14 -21 0 -52 3 -69 6 l-31 6 35 -66z"/>

 <!--41-->
 <path onclick="chang1_no(41)" d="M2937 11940 c-75 -26 -99 -40 -158 -92 -85 -77 -87 -92 -21 -162 60 -64 141 -224 182 -363 35 -118 61 -155 126 -177 45 -15 47 -15 104 14 51 26 63 38 93 92 22 39 38 84 42 118 11 92 43 217 69 267 31 63 39 105 31 158 -5 37 -17 54 -73 109 l-67 66 -120 0 c-107 0 -130 -4 -208 -30z m258 -22 c53 -14 66 -45 13 -32 -34 9 -48 9 -190 -2 -56 -4 -91 -11 -99 -20 -6 -8 -15 -14 -20 -14 -14 0 -10 22 8 42 13 14 32 18 97 19 45 0 90 4 101 9 28 12 38 12 90 -2z m120 -197 c3 -5 -8 -32 -24 -60 -19 -32 -31 -67 -33 -97 -4 -62 -26 -70 -30 -12 -2 34 5 58 32 110 35 67 44 77 55 59z"/>
 <!--31-->
 <path onclick="chang1_no(31)" d="M3563 11939 l-43 -30 0 -92 c0 -85 2 -95 30 -137 25 -38 30 -55 30 -110 0 -75 7 -106 57 -248 47 -137 54 -140 160 -80 70 40 85 54 140 134 82 117 123 240 123 366 l0 85 -47 45 c-84 77 -128 93 -278 95 l-130 3 -42 -31z m115 -279 c26 -74 32 -106 30 -154 -2 -36 -8 -61 -15 -64 -10 -3 -13 14 -13 60 0 44 -9 88 -30 148 -33 92 -36 114 -18 108 7 -3 27 -47 46 -98z"/>
 <!--32-->
 <path onclick="chang1_no(32)" d="M4217 11782 l-27 -28 0 -285 0 -285 38 -37 c34 -33 43 -37 91 -37 46 0 59 5 93 33 93 77 170 166 258 297 53 78 65 103 66 140 4 105 -68 162 -257 204 -64 14 -143 26 -176 26 -52 0 -63 -3 -86 -28z m473 -127 c10 -37 10 -52 -1 -81 -13 -35 -38 -46 -31 -14 7 31 6 86 -2 113 -6 21 -5 27 7 27 9 0 19 -18 27 -45z m-400 -115 c0 -100 -2 -120 -15 -120 -12 0 -15 20 -15 120 0 100 3 120 15 120 13 0 15 -20 15 -120z"/>
 <!--42-->
 <path onclick="chang1_no(42)" d="M2290 11733 c-54 -36 -68 -55 -80 -111 -11 -54 -10 -61 21 -147 26 -73 43 -100 89 -150 30 -33 70 -81 88 -106 17 -26 60 -70 96 -98 55 -44 70 -51 108 -51 41 0 47 3 75 43 43 59 63 138 63 245 0 142 -43 247 -137 333 -57 53 -265 80 -323 42z m210 -28 c0 -12 -14 -15 -65 -15 -60 0 -75 6 -58 23 3 4 33 7 65 7 45 0 58 -3 58 -15z m153 -262 c4 -71 9 -143 13 -160 5 -25 3 -33 -8 -33 -20 0 -38 104 -38 224 0 75 3 96 14 96 11 0 15 -28 19 -127z"/>
 <!--43-->
 <path onclick="chang1_no(43)" d="M1863 11505 c-56 -14 -140 -69 -167 -110 -9 -13 -16 -37 -16 -52 0 -15 -14 -107 -31 -203 l-32 -175 24 -44 c45 -85 164 -141 301 -141 64 0 86 -5 140 -30 66 -31 128 -39 146 -17 5 6 15 32 22 57 6 25 20 70 30 100 20 64 18 96 -16 279 -44 226 -104 300 -274 336 -39 8 -72 15 -73 14 -1 -1 -25 -7 -54 -14z m157 -60 c0 -8 -7 -15 -15 -15 -17 0 -139 -65 -193 -102 -26 -18 -39 -40 -62 -108 -16 -47 -30 -102 -30 -122 0 -27 -4 -38 -15 -38 -23 0 -19 68 10 144 14 37 25 75 25 86 0 21 27 42 150 117 86 53 130 66 130 38z m210 -375 c0 -91 -3 -110 -15 -110 -12 0 -15 19 -15 110 0 91 3 110 15 110 12 0 15 -19 15 -110z"/>
 <!--33-->
 <path onclick="chang1_no(33)" d="M4870 11499 c-77 -35 -89 -52 -161 -227 l-39 -96 0 -168 0 -168 37 -75 c36 -72 39 -75 72 -75 19 0 43 -7 53 -17 25 -22 62 -5 89 41 11 20 30 38 41 42 12 3 42 25 67 49 51 46 134 105 149 105 6 0 43 22 84 49 40 26 84 51 98 54 14 4 38 18 54 33 27 25 28 31 24 88 -7 87 -50 165 -140 253 -67 67 -80 75 -162 103 -110 37 -198 40 -266 9z m133 -85 c30 -45 97 -99 177 -143 19 -10 62 -46 95 -80 33 -33 66 -61 73 -61 6 0 12 -7 12 -15 0 -31 -36 -13 -98 50 -35 36 -81 75 -101 85 -84 46 -148 99 -185 152 -22 32 -35 61 -31 68 9 15 17 7 58 -56z m-210 -140 c3 -4 2 -15 -4 -26 -17 -32 -59 -244 -59 -297 0 -27 7 -65 15 -84 18 -45 19 -67 2 -67 -18 0 -47 95 -47 152 0 63 26 201 52 271 20 55 27 64 41 51z"/>

 <!--34-->
 <path onclick="chang1_no(34)" d="M5290 10947 c-25 -19 -73 -48 -107 -66 -34 -19 -90 -58 -124 -87 -34 -29 -70 -56 -81 -60 -35 -11 -58 -76 -58 -165 0 -81 1 -83 41 -136 23 -29 63 -71 89 -93 l48 -40 126 0 c166 0 204 16 327 136 69 68 100 91 141 105 29 10 63 18 76 19 20 0 27 11 22 35 -1 5 -6 34 -12 65 -5 32 -29 90 -56 139 -46 81 -49 84 -117 116 -68 32 -195 66 -245 65 -14 0 -45 -15 -70 -33z m228 -54 c15 -9 53 -41 85 -72 56 -55 57 -56 57 -113 0 -45 -3 -58 -15 -58 -12 0 -15 13 -15 58 0 55 -2 60 -42 99 -50 47 -96 73 -133 73 -16 0 -25 6 -25 15 0 21 53 20 88 -2z m-188 -68 c0 -3 -7 -16 -15 -29 -14 -21 -14 -24 0 -30 9 -3 27 -29 39 -58 13 -29 36 -70 50 -91 31 -45 32 -50 9 -45 -9 2 -37 41 -62 88 l-46 85 -53 3 c-37 2 -52 7 -52 18 0 9 11 14 35 14 26 0 39 6 51 25 14 22 44 35 44 20z m-120 -263 c0 -51 12 -72 42 -72 10 0 18 -7 18 -15 0 -24 -31 -18 -62 12 -22 21 -28 36 -28 68 0 23 3 45 7 48 16 16 23 4 23 -41z m265 -9 c-11 -7 -22 -13 -27 -13 -4 0 -8 -13 -8 -30 0 -20 -5 -30 -15 -30 -10 0 -15 11 -15 35 0 30 5 37 33 49 38 16 58 9 32 -11z"/>
 <!--44-->
 <path onclick="chang1_no(44)" d="M1435 10895 c-86 -27 -135 -66 -169 -135 -18 -36 -38 -93 -45 -127 -12 -61 -11 -63 20 -125 33 -65 65 -112 108 -162 27 -30 153 -96 183 -96 9 0 52 -11 95 -25 110 -35 127 -33 213 25 110 73 106 68 120 148 16 95 1 181 -44 251 -32 50 -108 121 -130 121 -7 0 -61 32 -120 70 -116 76 -144 83 -231 55z m185 -150 c8 -20 16 -25 45 -25 24 0 35 -5 35 -15 0 -9 -9 -15 -25 -15 -15 0 -31 -9 -40 -23 -14 -22 -14 -28 1 -62 l15 -38 -42 -43 -43 -44 22 -39 c25 -44 28 -61 9 -61 -7 0 -21 16 -30 35 -11 24 -26 37 -48 43 -42 10 -50 32 -14 32 19 0 42 14 70 42 l43 41 -16 34 c-15 31 -15 36 1 62 15 25 15 30 2 41 -16 13 -20 42 -8 53 10 11 13 9 23 -18z m-275 -75 c-8 -16 -15 -36 -15 -45 0 -8 -7 -15 -15 -15 -20 0 -19 31 2 68 23 40 49 32 28 -8z m535 -167 c-1 -32 -10 -48 -59 -102 -40 -44 -63 -62 -74 -58 -13 5 -3 20 43 68 49 51 60 69 60 96 0 23 5 33 15 33 11 0 15 -11 15 -37z"/>
 <!--35-->
 <path onclick="chang1_no(35)" d="M5692 10513 c-30 -10 -60 -35 -105 -85 -93 -104 -177 -147 -307 -157 -73 -6 -75 -7 -102 -46 -26 -37 -28 -46 -25 -115 2 -41 15 -118 30 -170 25 -89 30 -98 80 -146 67 -63 106 -81 187 -90 80 -8 146 14 217 74 26 22 59 43 73 47 14 4 50 20 80 35 30 16 79 37 109 47 46 15 59 26 88 70 27 43 33 62 33 107 0 191 -119 396 -251 431 -63 17 -53 17 -107 -2z m128 -85 c0 -24 10 -44 38 -73 98 -103 137 -195 112 -269 -18 -55 -27 -43 -26 32 1 84 -24 138 -100 213 -33 33 -54 62 -54 76 0 12 -4 25 -10 28 -18 11 -10 25 15 25 22 0 25 -5 25 -32z m-220 -203 c0 -104 14 -148 64 -194 14 -13 23 -29 19 -34 -4 -7 1 -8 13 -2 10 4 41 10 68 13 39 4 48 2 44 -9 -3 -8 -24 -16 -49 -20 -24 -3 -72 -17 -106 -31 -34 -14 -65 -23 -68 -20 -12 12 -3 20 41 37 l46 17 -35 37 c-57 60 -67 88 -67 201 0 82 3 100 15 100 12 0 15 -17 15 -95z"/>
 <!--45-->
 <path onclick="chang1_no(45)" d="M1065 10290 c-33 -11 -75 -33 -92 -50 l-33 -31 0 -150 0 -150 68 -67 c53 -53 77 -70 115 -79 27 -7 67 -26 90 -41 65 -44 146 -62 280 -62 129 0 191 16 265 69 30 22 42 40 51 74 22 88 16 118 -38 188 -78 103 -224 222 -287 234 -20 3 -47 13 -60 22 -43 28 -177 63 -239 62 -33 0 -87 -9 -120 -19z m338 -130 c4 -15 14 -20 41 -20 25 0 36 -4 36 -15 0 -10 -10 -15 -29 -15 -24 0 -31 -6 -40 -31 -16 -46 -16 -47 44 -59 51 -11 63 -18 49 -32 -3 -3 -30 0 -60 7 l-55 13 -10 -27 c-5 -14 -12 -32 -14 -39 -8 -23 -27 -1 -21 24 4 13 2 24 -2 24 -17 0 -95 121 -85 131 7 7 23 -7 47 -40 43 -58 60 -58 78 0 9 30 9 42 0 51 -16 16 -15 48 2 48 7 0 16 -9 19 -20z m267 -143 c0 -8 -11 -24 -25 -37 -29 -27 -34 -80 -10 -100 8 -7 15 -29 15 -49 0 -31 -5 -39 -35 -55 -43 -24 -60 -12 -22 16 32 23 36 66 9 91 -25 22 -17 72 17 114 27 34 51 43 51 20z m-388 -61 c29 -9 59 -29 82 -53 30 -32 35 -45 36 -85 0 -36 -4 -48 -15 -48 -11 0 -15 11 -15 43 0 36 -6 49 -33 75 -18 17 -50 38 -72 45 -21 8 -41 19 -43 25 -5 15 3 15 60 -2z"/>
 <!--36-->
 <path onclick="chang1_no(36)" d="M6015 9870 c-22 -11 -61 -19 -87 -20 -76 0 -192 -53 -269 -121 -37 -33 -74 -59 -82 -59 -26 0 -74 -33 -92 -62 -39 -66 -45 -116 -45 -364 0 -191 3 -249 15 -277 8 -20 19 -38 25 -42 6 -3 25 -30 44 -58 33 -52 34 -53 162 -100 145 -53 193 -58 276 -28 29 11 80 27 113 37 80 22 107 42 246 178 84 83 121 127 129 153 7 21 19 49 27 62 12 19 14 54 11 180 -5 202 -10 214 -159 363 -89 88 -127 119 -182 145 -80 38 -80 38 -132 13z m124 -74 c15 -8 40 -33 54 -55 15 -23 32 -41 37 -41 6 0 10 -11 10 -25 0 -14 -4 -25 -8 -25 -9 0 -44 44 -74 91 -9 15 -26 30 -37 34 -12 3 -21 13 -21 21 0 18 4 18 39 0z m-301 -237 c17 -30 33 -41 65 -50 57 -15 114 -45 125 -66 9 -16 12 -16 37 1 16 10 60 26 99 35 l71 17 -1 52 c-2 45 1 52 17 52 17 0 19 -8 19 -64 l0 -63 -81 -16 c-44 -9 -93 -26 -109 -37 -26 -18 -28 -24 -19 -52 5 -17 13 -36 18 -41 11 -11 -14 -86 -57 -172 -42 -83 -44 -99 -9 -103 48 -6 33 -32 -18 -32 -36 0 -45 3 -45 18 0 21 29 96 69 182 17 35 27 68 23 71 -4 4 -45 -1 -92 -12 -47 -11 -95 -22 -107 -24 -36 -8 -122 -83 -145 -128 l-23 -42 -5 55 c-3 35 -15 72 -33 102 -17 30 -23 49 -16 53 13 8 9 12 49 -52 l32 -53 41 34 c58 46 68 51 182 76 55 12 102 24 104 26 2 1 -7 17 -19 34 -16 22 -19 35 -12 42 25 25 -30 66 -121 89 -37 9 -48 17 -58 42 -8 18 -29 46 -48 63 -19 18 -31 36 -27 43 10 16 64 -31 94 -80z m-248 -56 c-1 -5 -7 -19 -15 -33 -8 -14 -14 -47 -15 -73 0 -34 -4 -47 -12 -45 -34 11 -7 158 29 158 7 0 13 -3 13 -7z m794 -105 c57 -204 57 -208 36 -208 -8 0 -54 159 -66 223 -10 57 13 46 30 -15z m-641 -458 c14 -37 57 -55 84 -35 10 8 24 15 31 15 22 0 12 -25 -17 -43 -28 -16 -33 -16 -70 -1 -36 14 -61 49 -61 85 0 21 23 6 33 -21z"/>
 <!--46-->
 <path onclick="chang1_no(46)" d="M895 9804 c-75 -14 -83 -18 -133 -67 -84 -81 -112 -128 -112 -182 0 -49 -50 -225 -81 -285 -41 -78 -35 -160 19 -246 20 -32 42 -50 94 -75 37 -18 80 -45 95 -61 18 -19 37 -28 57 -28 33 0 86 -31 159 -92 59 -51 154 -98 197 -98 47 0 102 16 180 51 l65 30 59 122 c32 67 75 140 95 162 53 57 61 83 61 193 -1 125 -18 202 -63 283 -31 56 -44 68 -92 92 -30 15 -68 27 -83 27 -46 0 -173 39 -259 81 -46 21 -87 39 -92 39 -6 0 -22 16 -37 35 -14 19 -31 35 -38 34 -6 0 -47 -7 -91 -15z m-15 -214 c0 -43 4 -60 13 -60 7 0 26 -13 42 -30 28 -29 31 -30 125 -30 88 0 98 -2 118 -23 26 -28 18 -42 -12 -22 -14 11 -48 15 -116 15 -94 0 -97 1 -125 30 -35 37 -51 38 -77 5 -11 -14 -26 -25 -34 -25 -20 0 -18 10 8 37 15 16 22 39 25 80 5 69 9 83 23 83 6 0 10 -25 10 -60z m540 -108 c14 -9 27 -17 29 -18 1 -2 0 -8 -4 -14 -4 -7 -19 -3 -44 11 l-38 21 -77 -48 -76 -49 0 -63 c0 -49 7 -76 30 -125 16 -34 35 -70 42 -79 7 -9 9 -20 6 -23 -15 -16 -48 20 -74 81 l-28 66 -39 -6 c-57 -9 -62 -15 -34 -45 30 -32 59 -86 50 -95 -12 -11 -22 -6 -28 15 -10 32 -75 99 -95 99 -10 0 -37 21 -61 48 l-44 47 35 3 c29 3 40 -2 65 -31 30 -34 30 -34 76 -22 67 18 69 20 69 84 l0 58 81 53 81 52 -32 33 c-53 54 -25 62 33 9 29 -26 63 -54 77 -62z m-730 -250 l0 -67 90 -90 c85 -84 101 -105 82 -105 -4 0 -52 42 -105 94 l-97 94 0 71 c0 56 3 71 15 71 12 0 15 -14 15 -68z m862 53 c3 -3 -3 -47 -13 -98 -10 -50 -18 -108 -18 -127 -1 -43 -25 -80 -52 -80 -24 0 -26 36 -1 42 13 4 21 29 36 124 10 65 21 125 24 132 4 12 15 16 24 7z"/>
 <!--37-->
 <path onclick="chang1_no(37)" d="M6405 8986 c-28 -19 -90 -75 -140 -125 -82 -84 -96 -94 -157 -112 -36 -11 -74 -29 -84 -40 -9 -10 -29 -19 -43 -19 -49 0 -106 -22 -148 -57 l-43 -34 0 -167 c0 -209 14 -271 83 -359 26 -32 47 -66 47 -75 0 -47 106 -77 185 -53 28 8 78 15 112 15 34 0 74 5 90 11 15 6 51 15 78 19 101 17 217 63 265 104 14 12 42 29 62 38 24 11 50 37 77 77 51 75 53 111 10 217 -17 43 -40 128 -50 189 -46 281 -62 318 -163 375 -71 41 -117 40 -181 -4z m118 -199 c58 -27 74 -40 84 -65 8 -23 8 -34 0 -39 -6 -3 -13 -1 -15 5 -10 32 -48 63 -102 84 -33 12 -60 29 -60 35 0 19 15 16 93 -20z m-272 -156 c-48 -42 -52 -67 -13 -83 15 -6 44 -27 64 -46 36 -34 39 -35 109 -33 90 3 119 18 153 76 15 25 30 45 35 45 20 0 17 -16 -10 -60 -41 -67 -84 -90 -165 -90 -45 0 -66 -4 -70 -13 -3 -8 1 -49 8 -93 l14 -79 64 -1 c48 -1 65 -5 65 -15 0 -11 -18 -14 -80 -14 l-80 0 -7 75 c-5 41 -10 81 -13 88 -8 20 -61 6 -128 -34 -51 -32 -173 -74 -212 -74 -8 0 -15 6 -15 13 0 9 28 20 77 31 44 9 99 30 127 48 27 16 72 37 98 45 26 7 48 18 48 22 0 15 -73 76 -108 90 -28 12 -32 18 -32 52 0 35 4 41 52 74 65 44 78 27 19 -24z m439 -235 c0 -29 -7 -71 -16 -92 -19 -47 -20 -48 -33 -40 -6 4 -5 21 5 48 7 22 14 62 14 89 0 37 4 49 15 49 11 0 15 -13 15 -54z"/>
 <!--47-->
 <path onclick="chang1_no(47)" d="M591 8813 c-75 -23 -90 -57 -91 -213 -1 -103 -4 -123 -30 -190 -25 -64 -30 -89 -30 -165 0 -49 5 -106 10 -126 12 -43 149 -189 177 -189 11 0 28 -7 39 -15 15 -11 57 -14 204 -15 167 0 188 -2 215 -20 41 -27 60 -26 132 12 62 33 63 34 92 113 47 124 61 177 74 288 9 73 9 119 2 161 -9 52 -14 61 -51 87 -22 15 -83 44 -134 63 -52 19 -107 48 -124 64 -17 16 -52 43 -77 60 -25 17 -51 37 -58 46 -8 9 -28 16 -46 16 -19 0 -54 9 -80 20 -57 24 -147 25 -224 3z m369 -174 c8 -22 23 -47 34 -55 25 -17 68 -18 84 -2 19 19 27 0 8 -21 -10 -11 -32 -21 -50 -23 -26 -2 -36 -11 -58 -53 -32 -58 -33 -65 -13 -65 10 0 15 -10 15 -29 0 -22 9 -34 40 -55 48 -32 66 -33 89 -4 11 13 24 19 34 15 20 -7 23 -27 5 -27 -7 0 -22 -12 -33 -27 -27 -33 -53 -28 -118 22 -34 26 -47 43 -47 60 0 14 -4 25 -10 25 -5 0 -10 -6 -10 -13 0 -7 -16 -37 -35 -67 -47 -75 -47 -117 0 -148 34 -22 46 -42 24 -42 -5 0 -27 11 -47 25 -41 28 -93 33 -112 10 -7 -8 -23 -15 -36 -15 -15 0 -24 6 -24 15 0 8 8 15 18 15 10 0 27 6 38 14 11 8 31 16 44 18 19 2 26 10 30 33 3 17 13 45 23 63 l18 34 -63 -6 c-35 -3 -89 -8 -121 -12 -71 -7 -97 10 -97 63 0 45 28 46 32 1 l3 -33 55 2 c30 2 90 5 133 9 l78 6 47 94 c42 86 45 95 29 106 -16 13 -47 77 -47 98 0 27 28 5 40 -31z m318 -122 c57 -61 64 -132 28 -299 -39 -187 -42 -192 -86 -222 -44 -29 -60 -32 -60 -13 0 6 18 22 39 34 37 21 39 26 60 115 35 153 43 210 39 266 -5 57 -33 105 -64 110 -35 6 -45 12 -39 22 11 18 61 11 83 -13z"/>
 <!--38-->
 <path onclick="chang1_no(38)" d="M6620 8010 c-73 -38 -106 -49 -143 -49 -27 -1 -65 -10 -87 -21 -32 -16 -59 -20 -152 -20 -62 0 -131 -5 -153 -11 -90 -24 -138 -116 -116 -219 6 -28 11 -97 11 -154 0 -98 1 -105 29 -142 46 -63 102 -111 156 -134 217 -94 249 -94 478 0 95 39 177 76 184 83 7 7 24 71 38 142 20 105 25 159 25 285 0 174 -11 214 -69 263 -48 40 -88 35 -201 -23z m-130 -134 c0 -2 -11 -24 -25 -47 -27 -48 -31 -97 -14 -148 9 -24 15 -30 28 -25 9 4 43 9 76 11 80 6 111 19 126 54 8 20 15 27 22 20 7 -7 6 -20 -2 -39 -16 -37 -65 -59 -149 -65 -70 -6 -82 -11 -64 -29 7 -7 12 -25 12 -41 0 -17 8 -36 18 -43 21 -16 106 -18 134 -3 27 15 35 3 13 -21 -14 -16 -31 -20 -76 -20 -32 0 -61 5 -65 11 -7 13 -84 -58 -84 -78 0 -7 -7 -13 -15 -13 -25 0 -17 34 15 65 25 24 30 37 30 75 0 25 -5 51 -12 58 -8 8 -46 12 -103 12 -84 0 -95 -2 -138 -30 -26 -16 -52 -30 -57 -30 -6 0 -10 -6 -10 -13 0 -17 -38 -53 -46 -44 -3 3 -1 14 5 25 6 12 11 39 11 61 0 30 4 41 15 41 9 0 15 -9 15 -25 0 -14 5 -25 10 -25 6 0 10 3 10 8 0 4 20 19 44 35 38 24 53 27 124 27 44 0 83 3 86 8 2 4 0 28 -6 53 -14 59 -4 111 28 149 22 26 44 39 44 26z"/>
 <!--48-->
 <path onclick="chang1_no(48)" d="M450 7883 c-74 -20 -103 -50 -159 -167 l-48 -99 13 -73 c22 -125 104 -217 320 -356 138 -89 164 -98 288 -98 l104 0 33 37 c18 21 57 76 88 123 30 47 71 104 91 126 85 99 113 244 65 340 -36 72 -58 88 -165 120 -79 23 -121 29 -250 33 -96 4 -163 11 -177 19 -28 16 -133 13 -203 -5z m266 -80 c19 -59 23 -62 102 -65 49 -2 77 -7 80 -15 2 -9 -7 -13 -27 -13 -32 0 -37 -9 -22 -39 7 -12 1 -33 -20 -77 -16 -32 -32 -75 -35 -94 -4 -32 -1 -37 34 -62 l38 -27 35 26 c19 15 51 42 72 62 32 30 37 41 37 78 0 32 4 43 15 43 11 0 15 -12 15 -48 0 -43 -4 -52 -42 -88 -24 -22 -62 -55 -85 -73 l-43 -33 -34 21 c-18 12 -39 28 -46 36 -9 11 -34 15 -94 15 -89 0 -96 3 -139 62 -31 42 -38 108 -12 108 10 0 15 -10 15 -33 0 -18 11 -49 26 -70 l25 -38 72 3 72 3 20 55 c11 30 28 69 37 85 24 45 0 84 -52 85 -29 0 -70 52 -70 88 0 26 18 29 26 5z m152 -613 c29 0 55 8 80 25 42 29 52 31 52 11 0 -23 -84 -66 -130 -66 -39 0 -112 29 -125 50 -16 25 9 28 43 5 25 -17 50 -25 80 -25z"/>
 <!--18-->
 <path onclick="chang1_no(18)" d="M550 5021 c-68 -11 -123 -27 -157 -44 -63 -32 -123 -106 -123 -150 0 -64 -33 -204 -61 -257 -26 -49 -29 -65 -29 -144 0 -83 2 -93 34 -150 42 -75 69 -101 125 -121 59 -20 218 -21 241 0 18 17 193 73 260 84 25 4 55 13 67 19 12 7 39 12 60 12 46 0 124 39 140 70 6 12 17 66 23 119 11 84 10 114 -4 217 -19 137 -15 131 -168 237 -46 32 -94 67 -108 77 -20 16 -168 54 -190 49 -3 -1 -52 -9 -110 -18z m115 -216 c49 -30 75 -32 82 -5 5 20 33 29 33 10 0 -20 -24 -60 -37 -60 -17 0 -17 -15 4 -68 12 -33 20 -41 32 -35 9 4 39 8 68 8 43 0 57 5 81 28 40 39 54 16 16 -25 -19 -20 -25 -32 -16 -35 6 -3 12 -14 12 -26 0 -12 9 -51 20 -86 l20 -64 -31 -48 c-17 -27 -34 -49 -38 -49 -20 0 -17 15 9 56 l28 45 -20 72 c-31 113 -62 127 -184 83 -80 -29 -91 -40 -115 -103 -9 -26 -23 -63 -30 -80 -12 -30 -11 -34 14 -61 31 -32 35 -48 10 -36 -10 4 -45 10 -78 13 -64 6 -77 24 -23 29 32 3 34 6 62 89 33 99 35 95 -62 140 -70 33 -124 40 -141 19 -16 -19 -31 -21 -31 -4 0 23 34 48 64 48 35 0 126 -34 174 -66 l34 -22 51 31 c29 17 54 32 56 33 9 6 -33 106 -48 112 -9 3 -22 12 -29 19 -7 7 -22 19 -34 27 -11 8 -17 19 -13 25 9 15 14 14 60 -14z m-365 -370 c0 -127 39 -194 113 -195 26 0 37 -4 37 -15 0 -22 -66 -19 -105 5 -44 28 -75 112 -75 209 0 56 3 71 15 71 12 0 15 -15 15 -75z"/>
 <!--28-->
 <path onclick="chang1_no(28)" d="M6416 4995 c-16 -12 -56 -15 -193 -15 l-172 0 -16 -30 c-8 -16 -15 -52 -15 -79 0 -44 -6 -60 -46 -117 -25 -37 -56 -89 -70 -115 -13 -27 -37 -70 -54 -96 -23 -35 -30 -59 -30 -96 0 -43 5 -54 46 -102 26 -30 61 -59 78 -66 17 -7 46 -26 65 -42 63 -54 80 -57 334 -57 230 0 235 0 278 25 24 13 66 47 93 74 49 49 50 53 62 138 19 139 -12 336 -65 411 -10 15 -28 50 -41 79 -12 28 -29 58 -38 66 -43 35 -180 49 -216 22z m118 -74 c69 -21 125 -77 126 -126 0 -16 7 -41 15 -55 18 -31 19 -70 2 -70 -14 0 -36 57 -44 113 -12 90 -132 149 -231 114 -58 -21 -72 -21 -72 -2 0 9 9 15 23 15 12 1 33 7 47 15 33 19 64 18 134 -4z m-377 -124 c-104 -159 -129 -207 -109 -207 4 0 27 16 49 35 23 19 47 35 55 35 8 0 29 -16 48 -35 33 -34 60 -42 94 -29 13 5 16 23 16 89 0 83 0 83 32 104 43 27 66 9 26 -21 -26 -19 -28 -24 -28 -99 l0 -79 28 0 c23 0 33 -10 60 -55 18 -30 35 -55 37 -55 2 0 27 9 55 20 60 24 60 24 60 7 0 -7 -19 -20 -42 -28 -32 -12 -44 -23 -54 -50 -16 -44 -17 -112 -2 -127 16 -16 1 -29 -20 -16 -21 13 -29 103 -12 134 8 15 8 24 -2 34 -7 7 -25 34 -40 60 -25 42 -31 46 -67 46 -29 0 -54 -10 -98 -39 -78 -52 -91 -68 -95 -115 -2 -23 -10 -43 -20 -50 -21 -13 -36 0 -20 16 7 7 12 28 12 48 0 28 8 43 38 72 20 20 47 41 59 47 22 11 21 12 -22 52 l-43 40 -46 -33 c-24 -18 -45 -38 -45 -44 -1 -5 -17 -25 -36 -44 l-35 -34 0 30 c0 66 55 183 137 292 27 36 54 35 30 -1z"/>
 <!--27-->
 <path onclick="chang1_no(27)" d="M5820 4224 c-44 -19 -82 -79 -122 -194 -17 -47 -39 -99 -49 -116 -16 -27 -19 -51 -19 -175 l0 -144 73 -57 c51 -41 99 -68 167 -94 52 -20 109 -50 125 -65 17 -16 59 -38 93 -50 34 -11 67 -29 72 -39 12 -23 75 -48 163 -64 57 -11 80 -11 124 -1 30 7 55 14 57 16 2 2 16 29 31 59 35 68 85 334 92 491 l5 105 -42 102 c-23 56 -53 113 -66 127 l-23 25 -191 0 c-220 0 -264 8 -311 56 -30 31 -38 34 -88 33 -31 0 -72 -7 -91 -15z m60 -129 c0 -3 -14 -24 -31 -48 -28 -37 -30 -48 -27 -97 3 -33 14 -70 27 -92 l23 -38 117 0 c65 0 120 3 124 6 3 4 -8 27 -25 52 -29 41 -58 117 -58 149 0 28 65 43 190 43 123 0 200 -14 200 -37 0 -15 -46 -17 -55 -3 -4 6 -61 10 -139 10 -160 0 -175 -6 -156 -66 7 -21 28 -59 47 -83 35 -46 38 -57 24 -80 -9 -13 14 -68 34 -83 6 -4 65 -8 131 -8 92 0 124 -3 133 -14 6 -8 21 -16 32 -19 20 -5 21 -3 15 81 -3 48 -8 104 -12 125 -5 28 -3 37 8 37 19 0 38 -96 38 -196 0 -76 -2 -82 -29 -108 -52 -50 -56 -73 -25 -152 15 -38 29 -89 31 -114 4 -44 3 -46 -32 -63 -46 -22 -135 -23 -135 -2 0 11 12 15 51 15 68 0 89 13 89 53 0 18 -6 42 -14 53 -8 11 -21 45 -29 74 -15 61 -8 100 24 136 23 24 24 34 5 34 -7 0 -19 7 -26 15 -10 12 -39 15 -142 15 l-129 0 -21 36 -21 36 -18 -43 c-29 -71 -25 -93 26 -144 25 -25 43 -50 40 -55 -3 -5 5 -12 17 -15 28 -7 83 -89 74 -111 -5 -12 -14 -4 -39 32 -36 54 -75 72 -159 73 -37 1 -48 5 -48 17 0 14 10 16 60 12 33 -2 60 -1 60 2 0 4 -18 21 -40 39 -47 38 -52 71 -20 151 11 28 20 55 20 60 0 6 -47 10 -113 10 -127 0 -127 0 -166 77 -14 28 -21 61 -21 98 0 48 5 62 32 96 27 33 58 52 58 34z"/>
 <!--17-->
 <path onclick="chang1_no(17)" d="M770 4194 c-19 -8 -62 -22 -96 -30 -57 -15 -69 -23 -136 -93 -40 -42 -107 -98 -148 -125 -85 -55 -145 -109 -166 -148 -19 -36 -18 -92 2 -108 35 -30 114 -258 114 -332 0 -45 6 -67 27 -102 35 -58 77 -76 181 -76 88 0 113 10 233 98 43 31 96 59 128 69 31 9 72 26 91 39 24 17 49 24 82 24 68 0 111 30 155 110 20 36 53 83 74 106 58 65 61 74 39 133 -11 28 -20 71 -20 94 0 34 -6 49 -26 68 -14 13 -43 58 -64 99 -54 107 -75 122 -207 159 -124 34 -208 39 -263 15z m298 -124 c37 -27 42 -35 42 -71 0 -55 -21 -92 -99 -172 -50 -52 -85 -78 -148 -109 -46 -22 -86 -44 -89 -49 -2 -5 0 -26 5 -46 8 -28 6 -64 -4 -132 -8 -51 -16 -96 -19 -99 -16 -15 -18 17 -7 105 9 71 10 106 2 126 l-11 28 -43 -26 c-36 -20 -57 -25 -115 -25 -43 0 -74 -5 -78 -12 -4 -6 -6 -40 -5 -75 2 -52 0 -63 -13 -63 -13 0 -16 12 -16 53 0 28 -7 74 -15 101 -19 61 -19 66 0 66 8 0 15 -9 15 -20 0 -18 7 -20 89 -20 77 0 95 3 135 26 25 14 46 27 46 30 0 2 -17 12 -38 23 -41 21 -82 83 -82 125 0 17 14 42 38 68 47 50 67 36 22 -15 -16 -19 -30 -44 -30 -55 0 -33 33 -81 63 -93 16 -7 34 -18 41 -25 10 -10 29 -4 92 28 123 61 234 179 234 247 0 30 -7 40 -40 64 -22 16 -40 33 -40 38 0 17 27 9 68 -21z m162 -309 c0 -53 -18 -92 -62 -130 -25 -22 -39 -28 -44 -20 -4 7 5 24 25 41 36 33 51 65 51 114 0 24 5 34 15 34 11 0 15 -11 15 -39z"/>
 <!--16-->
 <path onclick="chang1_no(16)" d="M1176 3390 c-16 -5 -54 -10 -85 -11 -44 -2 -65 -9 -101 -35 -25 -17 -68 -39 -96 -48 -43 -14 -70 -36 -180 -149 -72 -72 -140 -148 -152 -169 -44 -72 -33 -183 27 -277 19 -30 31 -61 31 -82 0 -37 51 -187 76 -226 8 -13 31 -30 52 -38 20 -9 46 -24 57 -35 11 -10 45 -30 76 -44 52 -24 60 -25 135 -16 174 20 281 54 385 121 71 45 225 216 238 264 14 51 14 180 0 264 -18 108 -84 285 -129 347 -56 74 -121 120 -174 122 -22 1 -57 6 -76 12 -40 11 -45 11 -84 0z m155 -236 c55 -28 69 -76 69 -234 0 -118 -2 -140 -15 -140 -12 0 -15 17 -15 90 0 82 -2 90 -19 90 -11 0 -26 -6 -33 -13 -7 -7 -34 -25 -59 -40 -31 -19 -54 -42 -72 -76 -15 -27 -34 -51 -42 -55 -8 -3 -20 -17 -27 -31 -11 -24 -8 -29 32 -70 l44 -45 83 0 83 0 0 -30 0 -30 -75 0 c-54 0 -75 -4 -75 -13 0 -18 -40 -41 -52 -29 -5 5 -3 14 7 22 27 23 17 54 -35 105 -27 27 -50 55 -50 62 0 22 -133 17 -180 -7 -39 -20 -39 -20 -42 -87 -2 -42 -8 -68 -15 -71 -10 -3 -13 16 -13 74 0 74 -2 80 -32 111 -42 43 -29 54 17 14 20 -17 39 -31 43 -31 4 0 22 9 40 20 24 15 50 20 105 20 l72 0 18 73 c15 64 15 79 4 112 -8 21 -20 42 -28 47 -71 38 -199 121 -199 129 0 17 24 9 94 -35 39 -24 87 -51 106 -61 19 -10 36 -19 38 -20 2 -2 9 -26 17 -55 12 -44 11 -58 -1 -98 -17 -59 -17 -63 1 -55 9 3 25 23 35 44 11 21 36 51 56 66 20 15 51 40 68 55 18 15 44 30 59 33 22 6 27 13 27 39 0 32 -32 96 -48 96 -5 0 -26 13 -46 29 -21 16 -42 32 -49 35 -9 3 -8 7 2 15 11 7 23 3 44 -15 16 -14 42 -31 58 -40z"/>
 <!--26-->
 <path onclick="chang1_no(26)" d="M5688 3386 c-68 -21 -113 -78 -199 -253 l-79 -161 0 -101 c0 -109 15 -165 63 -235 34 -51 103 -96 145 -96 20 0 67 -18 119 -45 47 -25 92 -45 100 -45 23 0 176 -104 211 -144 17 -20 38 -49 47 -65 14 -28 58 -51 97 -51 25 0 108 46 131 72 13 16 17 39 17 106 l0 86 49 51 c61 62 92 145 99 262 4 79 3 84 -36 165 -46 94 -107 170 -161 198 -20 10 -67 50 -106 89 -61 63 -78 74 -146 96 -49 17 -86 36 -104 55 -28 29 -31 30 -119 29 -50 -1 -108 -6 -128 -13z m179 -63 c42 -11 73 -23 73 -30 0 -17 -24 -16 -84 2 -76 23 -122 19 -177 -15 -30 -18 -51 -25 -55 -19 -7 13 -3 17 49 51 51 32 93 35 194 11z m211 -202 c100 -28 138 -47 161 -80 41 -57 19 -71 -26 -17 -21 26 -47 41 -105 60 -94 32 -99 32 -127 2 -20 -22 -22 -32 -18 -98 8 -125 25 -173 90 -245 17 -20 31 -23 88 -23 60 0 72 4 120 36 68 45 79 59 79 106 0 27 4 38 15 38 10 0 15 -10 15 -30 0 -50 -25 -97 -62 -115 -18 -10 -48 -31 -65 -48 -31 -29 -33 -36 -33 -95 0 -46 -3 -63 -12 -60 -8 3 -14 29 -16 71 l-3 66 -62 3 -62 3 -48 64 c-26 35 -51 76 -54 92 -3 16 -8 29 -10 29 -3 0 -20 -12 -37 -27 -17 -16 -42 -35 -55 -43 l-23 -15 21 -54 c29 -77 67 -128 100 -134 31 -7 58 -42 68 -87 4 -23 2 -30 -11 -30 -9 0 -16 7 -16 15 0 9 -6 28 -14 44 -16 31 -77 49 -174 54 -71 3 -71 21 1 25 31 2 57 4 57 5 0 1 -15 42 -34 90 l-35 87 37 20 c41 22 102 75 102 89 0 17 -94 41 -162 41 -71 0 -116 14 -155 49 -28 24 -29 41 -3 41 11 0 20 -5 20 -10 0 -6 15 -19 33 -30 24 -15 50 -20 105 -20 40 0 81 -4 90 -9 9 -4 29 -11 45 -15 27 -6 27 -6 27 48 0 50 3 58 38 90 20 20 38 36 40 36 1 0 33 -9 70 -19z"/>
 <!--25-->
 <path onclick="chang1_no(25)" d="M5406 2494 c-50 -18 -69 -35 -117 -106 -35 -52 -39 -63 -39 -121 0 -82 18 -133 82 -229 39 -60 56 -78 73 -78 22 0 75 -50 75 -71 0 -6 26 -21 57 -35 31 -14 73 -38 93 -53 19 -16 68 -45 107 -65 65 -32 81 -36 151 -36 l79 0 30 43 c17 23 36 63 43 87 7 25 21 62 31 82 37 73 15 295 -37 365 -41 55 -241 171 -376 219 -52 18 -201 17 -252 -2z m302 -154 c40 -33 78 -60 85 -60 8 0 27 -7 44 -15 16 -8 39 -13 51 -10 18 3 26 -4 43 -37 27 -53 10 -74 -19 -24 -14 23 -26 34 -36 30 -8 -3 -28 2 -45 10 -40 21 -41 21 -41 -13 0 -24 -8 -34 -43 -54 -30 -18 -54 -45 -80 -87 l-36 -61 29 -17 c17 -9 30 -20 30 -24 0 -19 -25 -16 -80 12 -60 30 -81 56 -36 44 19 -4 29 1 49 28 13 18 28 43 32 56 4 13 29 39 56 59 27 19 49 42 49 50 0 24 -36 68 -90 109 -45 34 -64 64 -42 64 5 0 41 -27 80 -60z m-218 12 c0 -5 -10 -18 -22 -30 -13 -11 -31 -37 -42 -56 -18 -33 -18 -37 -2 -60 20 -31 20 -36 1 -36 -20 0 -48 56 -39 82 3 11 24 41 46 64 39 42 58 54 58 36z m520 -394 c0 -7 -12 -43 -26 -80 -26 -64 -29 -68 -81 -89 l-55 -22 -64 34 c-35 19 -64 40 -64 47 0 19 19 14 72 -18 56 -35 56 -35 107 -14 25 10 41 24 45 38 17 69 66 145 66 104z"/>
 <!--15-->
 <path onclick="chang1_no(15)" d="M1536 2446 c-14 -19 -45 -45 -68 -58 -24 -14 -72 -43 -108 -65 -70 -43 -148 -73 -189 -73 -14 0 -56 -8 -93 -17 l-68 -17 0 -69 c0 -37 7 -84 15 -104 8 -19 15 -55 15 -79 0 -55 53 -165 102 -210 37 -36 134 -84 167 -84 32 0 98 37 117 65 8 13 32 29 52 36 20 7 61 27 90 46 29 18 75 42 103 52 81 31 137 69 179 122 36 46 40 56 40 108 0 60 -27 179 -57 249 -11 26 -39 59 -73 87 -54 44 -56 45 -126 45 -70 0 -72 -1 -98 -34z m148 -120 c63 -26 82 -85 51 -159 -9 -22 -15 -67 -15 -112 0 -60 -3 -75 -15 -75 -12 0 -15 15 -15 75 0 45 6 90 15 112 28 67 16 112 -35 133 -16 7 -30 19 -30 26 0 17 3 17 44 0z m-460 -95 c7 -11 -21 -39 -69 -65 -33 -18 -41 -28 -43 -55 -2 -19 3 -50 12 -70 8 -20 23 -63 32 -96 19 -72 59 -145 79 -145 8 0 15 -7 15 -15 0 -9 -9 -15 -23 -15 -31 0 -70 68 -101 174 -13 46 -29 93 -35 104 -14 26 -14 77 -1 103 6 10 28 28 49 38 20 11 43 27 50 35 15 18 27 20 35 7z m261 0 c3 -6 -8 -20 -24 -32 -17 -12 -32 -28 -35 -35 -3 -7 13 -32 35 -55 42 -45 46 -60 24 -99 -23 -41 -19 -49 33 -52 34 -2 47 -7 47 -18 0 -11 -13 -16 -48 -18 -42 -3 -51 -7 -67 -35 -11 -18 -21 -36 -23 -41 -2 -5 -9 -6 -15 -2 -10 6 -6 19 13 53 18 33 22 49 15 58 -8 9 -4 26 12 59 l22 47 -44 44 c-33 33 -54 46 -79 48 -44 3 -55 27 -13 27 36 0 94 23 112 44 14 18 26 20 35 7z"/>

 <!--24-->
 <path onclick="chang1_no(24)" d="M5265 1906 c-22 -7 -50 -19 -63 -27 -61 -38 -142 -209 -142 -301 0 -77 28 -176 52 -184 12 -3 69 -39 128 -80 96 -65 109 -78 117 -112 l9 -37 67 -3 c46 -2 88 4 135 18 38 11 87 20 109 20 36 0 41 4 64 43 41 72 49 108 49 220 0 106 -1 110 -35 171 -42 76 -56 89 -120 114 -88 35 -145 73 -171 113 -13 22 -31 39 -39 39 -8 0 -15 5 -15 10 0 14 -97 11 -145 -4z m70 -126 c3 -6 -16 -24 -44 -41 -28 -17 -55 -43 -61 -59 -13 -32 -47 -66 -56 -58 -13 14 55 110 97 138 50 32 55 34 64 20z m152 -64 c15 -23 39 -41 77 -57 31 -12 56 -29 56 -37 0 -15 -24 -10 -72 14 -41 21 -48 17 -48 -24 0 -21 -7 -47 -15 -60 -15 -20 -14 -24 26 -67 52 -57 43 -73 -11 -20 l-40 39 -43 -43 c-28 -29 -38 -45 -29 -48 30 -11 62 -50 68 -80 9 -45 -18 -45 -34 0 -12 34 -82 84 -149 108 -18 6 -33 17 -33 25 0 17 2 17 47 -1 19 -8 46 -15 58 -15 25 0 83 58 109 109 20 38 21 113 1 150 -13 26 -11 41 4 41 3 0 16 -15 28 -34z"/>
 <!--14-->
 <path onclick="chang1_no(14)" d="M1690 1847 c-30 -13 -73 -34 -95 -48 -22 -14 -62 -34 -89 -45 -33 -13 -55 -30 -69 -52 -27 -46 -64 -62 -141 -62 l-66 0 2 -102 c1 -81 6 -110 21 -135 10 -18 23 -33 27 -33 4 0 26 -15 48 -33 22 -19 54 -39 70 -46 17 -7 36 -25 42 -41 7 -16 34 -50 61 -75 46 -43 51 -45 109 -45 56 0 66 4 118 42 31 23 77 61 102 84 46 43 154 113 213 137 41 18 57 64 57 167 0 72 0 72 -59 157 -52 75 -67 89 -126 119 -81 42 -143 45 -225 11z m132 -139 c3 -40 5 -43 48 -59 40 -15 47 -22 63 -65 10 -27 23 -53 28 -59 13 -13 11 -67 -2 -63 -6 2 -17 19 -23 38 -34 94 -49 114 -98 129 l-48 15 0 53 c0 39 4 53 14 53 10 0 16 -14 18 -42z m-178 4 c6 -10 -41 -82 -53 -82 -4 0 -13 -18 -20 -39 -10 -33 -9 -45 6 -75 14 -31 22 -36 50 -36 38 0 40 -5 13 -45 l-19 -30 26 -27 c30 -32 57 -35 110 -13 24 10 40 12 46 6 7 -7 -5 -16 -32 -27 -29 -11 -46 -26 -57 -50 -14 -29 -21 -34 -50 -34 -42 0 -43 5 -4 25 32 17 40 35 15 35 -8 0 -32 17 -53 38 -35 35 -37 41 -25 57 11 17 10 23 -16 49 -37 39 -52 78 -45 116 6 30 6 30 -40 30 -34 0 -46 4 -46 15 0 11 12 15 51 15 61 0 84 11 104 50 15 30 29 37 39 22z m-294 -195 c0 -7 -4 -17 -9 -22 -6 -6 1 -26 19 -52 33 -49 25 -65 -12 -25 -44 47 -52 71 -32 93 20 22 34 25 34 6z"/>
 <!--13-->
 <path onclick="chang1_no(13)" d="M2137 1443 c-4 -3 -7 -19 -7 -34 0 -25 -5 -28 -51 -38 -63 -14 -188 -95 -279 -181 -81 -77 -92 -83 -160 -90 -47 -4 -57 -9 -68 -32 -12 -25 -8 -37 49 -155 56 -114 70 -134 125 -183 39 -34 91 -66 136 -86 40 -17 95 -45 122 -62 91 -58 182 -39 236 50 18 29 48 72 66 96 24 32 36 61 45 115 7 40 18 81 25 92 16 24 61 195 70 263 5 40 2 58 -20 103 -38 81 -81 118 -158 135 -69 15 -121 18 -131 7z m223 -284 c0 -66 -4 -86 -21 -110 -11 -16 -27 -29 -35 -29 -19 0 -17 10 6 40 16 20 20 41 20 103 0 62 3 77 15 77 12 0 15 -16 15 -81z m-540 -194 l0 -45 62 -31 c64 -32 89 -56 108 -100 16 -37 49 -49 140 -49 74 0 81 2 96 26 25 37 41 14 18 -25 -18 -31 -19 -31 -101 -31 -107 0 -164 25 -186 81 -13 32 -26 43 -91 74 l-76 38 0 53 c0 41 4 54 15 54 11 0 15 -12 15 -45z"/>
 <!--23-->
 <path onclick="chang1_no(23)" d="M4990 1368 c-19 -5 -78 -25 -131 -44 l-96 -35 -16 -53 c-12 -36 -17 -88 -17 -165 0 -104 2 -115 30 -171 17 -33 46 -85 65 -114 33 -52 75 -148 75 -173 0 -7 14 -32 31 -57 l30 -46 82 0 c73 0 91 4 152 34 72 34 139 95 170 156 18 35 16 74 -6 128 -13 30 -11 36 20 93 30 54 32 62 18 82 -7 12 -22 45 -31 74 -36 109 -109 196 -230 272 -52 32 -84 37 -146 19z m155 -84 c51 -23 95 -67 95 -93 0 -19 -19 -12 -36 15 -10 14 -44 39 -76 55 -32 16 -56 34 -53 39 8 14 9 13 70 -16z m-345 -184 c0 -77 11 -119 42 -162 16 -22 3 -35 -17 -18 -38 31 -55 87 -55 175 0 69 3 85 15 85 12 0 15 -16 15 -80z m380 -33 c0 -7 -7 -34 -16 -59 -11 -34 -23 -49 -45 -58 -26 -11 -29 -17 -29 -57 0 -55 15 -62 73 -34 61 30 107 38 107 18 0 -9 -14 -17 -37 -22 -42 -8 -115 -72 -134 -117 -12 -30 -56 -41 -56 -13 0 8 6 15 13 15 7 0 16 10 20 23 4 12 11 25 17 29 6 4 2 17 -12 33 -12 16 -21 42 -21 63 0 32 -1 34 -27 28 -73 -18 -83 -19 -83 -2 0 10 9 16 23 17 12 0 51 13 87 27 62 26 66 29 80 74 14 44 40 66 40 35z"/>
 <!--12-->
 <path onclick="chang1_no(12)" d="M2610 1006 c-25 -7 -84 -32 -132 -56 -86 -43 -88 -44 -88 -80 0 -69 -29 -153 -61 -178 -31 -25 -99 -160 -99 -198 0 -14 11 -30 26 -41 15 -10 47 -37 73 -59 25 -23 64 -49 86 -58 22 -9 54 -32 70 -50 51 -58 214 -101 287 -77 35 12 58 41 107 135 l31 58 0 192 c0 163 -3 200 -19 246 -11 30 -22 76 -26 103 -10 66 -29 77 -130 76 -44 0 -100 -6 -125 -13z m48 -53 c2 -8 -5 -13 -18 -13 -25 0 -77 -25 -105 -50 -11 -10 -29 -20 -39 -22 -25 -4 -33 20 -9 29 10 3 32 17 48 29 56 42 113 54 123 27z m166 -92 c19 -107 19 -101 3 -101 -14 0 -51 165 -41 181 13 22 23 2 38 -80z m-404 -297 c0 -31 100 -188 133 -208 12 -8 41 -17 65 -21 28 -5 42 -12 42 -22 0 -11 -6 -14 -22 -9 -13 3 -40 9 -60 12 -43 7 -57 21 -132 132 -57 84 -74 142 -41 142 10 0 15 -10 15 -26z"/>
 <!--22-->
 <path onclick="chang1_no(22)" d="M4327 968 c-29 -56 -41 -212 -32 -428 5 -107 8 -225 8 -262 0 -77 14 -91 66 -64 17 9 55 16 86 16 88 0 189 39 283 109 84 64 97 84 122 189 26 110 -13 203 -133 328 -68 70 -88 85 -128 94 -26 6 -55 20 -65 31 -14 16 -31 19 -103 19 l-86 0 -18 -32z m240 -42 c10 -13 34 -31 53 -41 48 -24 80 -55 80 -77 0 -25 -23 -23 -35 4 -6 13 -31 33 -56 45 -40 18 -89 67 -89 87 0 15 30 4 47 -18z m233 -354 c0 -46 -2 -50 -77 -124 -43 -41 -103 -92 -133 -112 -50 -33 -61 -36 -127 -36 l-73 0 -20 41 c-14 26 -20 55 -18 81 4 57 28 63 28 8 0 -22 7 -54 15 -70 15 -28 19 -30 76 -30 73 0 115 25 227 134 67 66 72 73 72 113 0 32 4 43 15 43 11 0 15 -12 15 -48z"/>
 <!--21-->
 <path onclick="chang1_no(21)" d="M3905 957 c-95 -51 -131 -78 -164 -128 -39 -57 -61 -126 -61 -194 0 -29 -9 -77 -19 -108 -24 -69 -51 -245 -51 -331 0 -79 12 -95 103 -130 55 -21 84 -26 159 -26 108 0 179 19 308 83 78 39 85 44 85 72 1 17 4 47 9 68 11 50 -10 222 -39 317 -57 186 -139 340 -205 384 -22 14 -45 26 -52 26 -7 -1 -40 -15 -73 -33z m285 -567 c0 -114 -19 -149 -108 -194 -127 -64 -287 -84 -362 -46 -36 18 -40 24 -40 59 0 51 18 101 37 101 10 0 13 -5 8 -17 -4 -10 -10 -37 -12 -60 -5 -42 -4 -43 30 -58 73 -30 223 -8 338 50 64 33 79 63 79 165 0 64 3 80 15 80 12 0 15 -16 15 -80z"/>
 <!--11-->
 <path onclick="chang1_no(11)" d="M3072 869 c-23 -17 -51 -47 -61 -67 -11 -20 -31 -48 -45 -61 -26 -24 -26 -25 -26 -183 0 -153 -1 -160 -28 -215 -16 -32 -34 -67 -41 -78 -11 -17 -9 -27 14 -67 31 -56 56 -75 157 -123 l74 -35 188 2 189 3 41 79 41 78 3 162 c2 96 -1 185 -8 221 -24 119 -103 235 -201 293 -31 19 -51 22 -145 22 -105 -1 -111 -2 -152 -31z m8 -88 c0 -5 -11 -16 -25 -25 -17 -11 -25 -26 -25 -45 0 -33 -37 -121 -50 -121 -14 0 -12 44 2 58 7 7 15 36 18 64 4 43 9 55 30 65 29 15 50 17 50 4z m355 -51 c4 -19 25 -59 46 -89 37 -51 39 -58 39 -128 0 -58 -3 -73 -15 -73 -12 0 -15 15 -15 71 0 66 -3 75 -39 127 -40 57 -60 120 -46 143 10 15 20 -2 30 -51z m-403 -475 c20 -17 42 -25 69 -25 23 0 63 -12 101 -31 47 -23 82 -33 136 -36 70 -5 74 -4 102 22 16 15 34 40 40 56 13 29 40 40 40 16 0 -8 -18 -39 -41 -70 l-40 -57 -80 0 c-71 0 -87 4 -149 35 -49 24 -83 35 -114 35 -36 0 -52 6 -81 31 -19 17 -32 35 -29 40 8 13 13 11 46 -16z"/>
</g>
<g id="layer103" fill="#ffffff" stroke="none">
  <path d="M3347 11931 c58 -55 74 -77 86 -119 12 -37 13 -61 6 -84 -13 -47 -13 -48 31 -48 l41 0 -16 30 c-10 20 -15 58 -15 120 l0 91 63 39 62 40 -165 -1 -165 0 72 -68z"/>
  <!--牙肉-->
  <path d="M3398 11618 c-20 -39 -41 -120 -62 -238 -21 -127 -63 -194 -148 -243 l-67 -39 -51 17 c-58 19 -117 66 -132 104 -5 14 -21 67 -35 116 -15 50 -39 118 -54 153 -26 57 -31 62 -60 62 -30 0 -31 -1 -24 -32 4 -18 9 -79 12 -136 6 -132 -13 -219 -65 -291 l-37 -50 -60 0 c-57 0 -63 2 -123 50 -34 27 -87 82 -116 122 -60 80 -134 155 -121 122 19 -47 74 -324 75 -370 0 -28 -9 -69 -19 -91 -11 -23 -25 -67 -32 -99 -8 -35 -20 -62 -33 -71 -33 -23 -100 -17 -173 16 -51 23 -80 30 -129 30 l-64 0 35 -46 c75 -98 94 -176 75 -308 l-12 -85 -51 -39 c-80 -59 -161 -102 -194 -102 -17 0 -50 7 -73 15 -23 8 -45 15 -47 15 -3 0 27 -30 67 -67 40 -37 94 -96 121 -132 44 -57 49 -69 49 -116 0 -28 -7 -74 -15 -102 -13 -43 -23 -56 -63 -82 -62 -40 -123 -62 -197 -71 -59 -7 -59 -7 -30 -19 22 -8 40 -30 68 -81 49 -91 67 -171 67 -303 0 -119 -12 -157 -67 -209 -15 -15 -57 -86 -92 -157 l-65 -130 -75 -35 c-42 -19 -95 -40 -118 -46 -24 -6 -43 -12 -43 -14 0 -1 33 -19 73 -40 103 -53 105 -55 122 -135 13 -64 13 -83 0 -174 -15 -102 -58 -255 -95 -341 -15 -37 -28 -50 -72 -72 -29 -14 -55 -28 -57 -30 -1 -1 14 -21 35 -44 57 -62 77 -119 72 -210 -5 -88 -38 -169 -97 -234 -21 -22 -50 -63 -66 -91 -34 -60 -76 -116 -124 -167 l-35 -38 -107 0 c-130 0 -158 9 -298 97 -146 91 -220 153 -277 231 -42 57 -51 77 -65 152 l-17 85 53 105 c70 139 90 157 207 185 l93 22 -67 65 c-58 57 -69 72 -82 125 -27 102 -21 180 19 280 33 81 35 94 36 202 0 84 5 128 17 161 17 43 19 45 92 67 41 13 99 23 129 23 48 0 52 2 40 16 -7 9 -44 30 -82 47 -59 26 -73 38 -103 85 -19 29 -37 67 -41 83 -3 16 -9 32 -14 34 -4 3 -22 -32 -39 -77 -24 -63 -45 -96 -84 -138 -60 -63 -71 -100 -81 -275 -3 -55 -12 -146 -20 -202 -13 -93 -13 -115 5 -249 l18 -148 -20 -55 c-12 -31 -34 -75 -50 -99 -50 -74 -96 -184 -109 -263 -11 -68 -10 -91 15 -250 35 -229 55 -297 116 -398 45 -75 58 -89 128 -134 116 -75 172 -97 245 -97 34 0 95 -7 135 -17 70 -16 73 -16 135 5 34 11 82 26 105 32 71 18 220 117 256 169 17 25 40 53 51 63 11 9 36 30 55 46 19 17 41 47 49 68 8 22 27 58 42 81 29 41 29 44 29 183 0 113 6 179 31 323 33 192 45 224 139 387 32 55 41 84 59 191 12 70 21 160 21 200 0 51 7 91 21 129 11 30 36 127 56 215 37 170 56 231 101 323 17 32 35 92 42 137 8 52 24 103 46 145 29 54 34 75 34 130 0 100 20 316 37 400 8 41 18 91 20 111 4 29 21 52 85 115 44 43 134 153 200 244 135 184 293 354 347 371 62 21 218 97 285 139 126 79 204 96 302 64 64 -22 66 -24 88 -83 17 -47 17 -55 2 -120 -11 -50 -16 -121 -16 -245 0 -171 1 -177 30 -250 16 -41 36 -116 45 -168 9 -51 29 -133 46 -182 16 -48 32 -106 35 -127 4 -22 10 -39 14 -39 19 0 22 142 6 338 -10 130 -16 322 -16 515 l0 307 30 0 c16 0 52 9 80 20 74 29 116 26 175 -14 54 -36 177 -90 321 -140 149 -53 248 -113 340 -208 44 -46 103 -119 129 -163 27 -44 84 -116 127 -161 l78 -81 34 -159 c45 -206 83 -306 162 -421 l64 -93 1 -87 c0 -49 4 -110 10 -138 5 -27 13 -120 18 -205 14 -238 53 -349 166 -468 113 -120 185 -321 185 -517 0 -38 7 -95 15 -125 8 -30 15 -85 15 -123 0 -61 4 -73 41 -135 64 -103 68 -113 95 -234 14 -62 41 -156 59 -209 44 -127 145 -327 208 -412 47 -65 56 -72 168 -128 l119 -59 150 0 c143 0 153 1 225 30 41 16 107 54 147 83 70 52 158 138 158 154 0 5 9 52 20 106 16 81 20 135 19 295 -2 164 -3 186 -11 132 -9 -67 -25 -129 -38 -150 -8 -12 -291 -136 -379 -165 -83 -27 -138 -15 -351 78 -36 16 -134 111 -163 159 -13 21 -17 52 -17 132 0 58 -5 128 -11 157 -15 70 3 147 43 185 29 29 24 44 -16 44 -23 0 -76 48 -76 68 0 8 -22 44 -49 81 -68 93 -81 153 -81 375 l0 175 45 32 46 33 -43 11 c-51 14 -228 79 -257 95 -21 11 -78 90 -118 163 -22 40 -23 51 -23 287 0 261 7 316 50 385 12 20 21 38 19 40 -2 2 -31 8 -63 14 -67 12 -132 50 -193 113 -36 38 -45 57 -72 155 -40 144 -41 219 -6 280 l26 43 -39 0 c-50 0 -119 51 -189 139 l-53 66 0 82 0 83 -29 -6 c-16 -4 -32 -1 -35 5 -4 6 -22 11 -39 11 -45 1 -70 24 -111 107 l-36 73 0 175 0 176 34 88 c19 49 42 104 51 121 14 27 15 34 3 41 -21 14 -25 11 -54 -38 -45 -78 -161 -206 -253 -280 -47 -38 -59 -43 -105 -43 -49 0 -54 3 -104 53 l-52 53 0 207 0 207 -43 0 -43 0 -18 -57 c-10 -32 -34 -83 -54 -113 -91 -137 -108 -155 -193 -204 -83 -49 -83 -49 -123 -34 -39 14 -40 15 -84 144 -36 102 -46 147 -50 214 -2 47 -9 91 -14 98 -6 7 -34 12 -67 12 -54 0 -57 -2 -73 -32z"/>
  <path d="M1568 11044 c-24 -49 -44 -92 -46 -96 -2 -5 9 -8 25 -8 16 0 34 -5 41 -12 10 -10 11 -6 7 17 -3 17 1 64 9 105 7 41 12 77 10 79 -1 2 -22 -37 -46 -85z"/>
  <path d="M2190 11451 c0 -5 7 -15 17 -22 15 -13 15 -12 4 9 -12 23 -21 28 -21 13z"/>
  <path d="M3130 10957 c-30 -13 -81 -40 -113 -61 -52 -33 -241 -124 -292 -140 -39 -12 -183 -173 -310 -346 -70 -96 -160 -209 -200 -250 -68 -70 -73 -80 -93 -155 -23 -87 -52 -344 -52 -461 0 -65 -4 -82 -34 -138 -23 -43 -38 -91 -47 -143 -7 -44 -24 -103 -41 -135 -46 -94 -66 -155 -94 -293 -14 -71 -36 -164 -49 -205 -14 -46 -25 -113 -29 -175 -8 -156 -48 -325 -95 -404 -72 -122 -99 -185 -110 -259 -6 -40 -20 -119 -31 -175 -14 -73 -20 -144 -20 -250 0 -134 -2 -152 -21 -178 -11 -16 -33 -57 -49 -93 -22 -49 -40 -71 -78 -98 -27 -20 -62 -56 -78 -82 -22 -36 -53 -62 -129 -110 -55 -35 -116 -67 -135 -71 -19 -4 -70 -20 -114 -36 l-78 -28 -71 19 c-40 11 -101 20 -137 20 -79 1 -141 25 -255 98 -93 60 -94 59 -76 -58 6 -38 11 -133 11 -212 0 -79 5 -163 11 -188 6 -25 19 -102 30 -173 22 -145 20 -161 -42 -292 -29 -62 -34 -83 -40 -185 -7 -116 -11 -153 -31 -245 -10 -49 -62 -238 -75 -272 -5 -12 6 -7 30 14 70 62 185 132 233 144 27 7 67 23 90 35 37 22 52 24 174 24 122 0 140 -2 214 -29 45 -16 137 -48 206 -70 l125 -40 66 -73 c60 -67 68 -82 97 -174 31 -98 32 -108 32 -275 0 -167 2 -179 34 -295 33 -120 76 -205 125 -248 68 -61 125 -217 152 -411 6 -49 33 -160 60 -245 55 -180 79 -349 79 -562 0 -179 28 -276 122 -425 57 -91 138 -342 138 -430 0 -40 10 -105 27 -166 26 -99 26 -99 82 -140 31 -23 64 -52 75 -65 10 -13 57 -52 105 -88 71 -53 101 -84 172 -181 47 -65 101 -128 120 -140 19 -12 54 -38 79 -58 63 -51 235 -116 330 -125 41 -4 88 -12 103 -19 16 -6 64 -11 108 -11 76 0 82 2 110 29 33 33 34 49 14 141 -7 36 -22 183 -31 326 -18 258 -17 266 4 630 12 203 27 452 32 553 6 102 10 710 10 1358 l0 1173 20 0 21 0 -4 -1222 c-3 -986 -7 -1268 -20 -1453 -47 -677 -50 -772 -32 -1038 10 -147 24 -285 36 -337 l19 -89 -21 -35 c-11 -19 -36 -44 -55 -55 -47 -28 -149 -28 -222 -1 -29 11 -75 20 -103 20 -37 0 -82 13 -165 45 -62 25 -117 45 -122 45 -4 0 -21 14 -38 31 -16 17 -45 39 -64 49 -44 23 -79 61 -168 182 -51 69 -91 112 -144 151 -40 30 -89 71 -108 92 -19 20 -60 54 -91 75 l-56 38 -31 124 c-19 71 -32 148 -32 183 0 33 -9 87 -20 120 -61 188 -74 222 -91 246 -35 50 -108 206 -123 266 -11 41 -16 106 -16 199 0 190 -29 399 -75 539 -42 127 -60 205 -70 290 -10 93 -53 240 -86 298 -17 28 -48 70 -69 93 -53 57 -86 119 -105 194 -9 36 -25 94 -36 129 -16 52 -19 94 -19 240 0 167 -1 180 -29 265 -26 80 -36 95 -92 152 -35 35 -77 68 -94 73 -16 5 -101 32 -187 60 l-157 51 -141 0 c-109 0 -148 -4 -172 -16 -17 -9 -52 -22 -77 -30 -77 -22 -224 -127 -261 -185 -18 -27 -37 -49 -44 -49 -19 0 -56 -127 -71 -249 -29 -223 -13 -414 50 -616 19 -60 39 -144 45 -185 12 -81 46 -170 65 -170 6 0 22 11 35 25 13 14 67 54 119 90 53 35 109 80 124 100 l28 35 -75 0 c-86 0 -164 25 -209 68 -16 15 -46 62 -68 104 -35 69 -39 86 -39 151 0 65 4 80 37 142 37 69 61 168 62 250 1 31 10 54 39 92 53 73 132 110 283 133 110 17 119 17 201 1 76 -16 94 -24 150 -68 35 -28 88 -66 118 -86 102 -65 107 -75 126 -224 15 -122 15 -139 0 -245 -12 -81 -21 -117 -34 -127 -34 -27 -118 -61 -152 -62 -32 -1 -33 -1 -10 -8 14 -5 63 -19 110 -31 105 -28 145 -63 200 -170 21 -41 52 -88 69 -104 27 -26 31 -37 31 -81 0 -28 7 -72 16 -98 18 -53 13 -66 -46 -131 -46 -51 -113 -177 -101 -189 5 -5 40 -12 78 -14 58 -5 76 -11 124 -45 76 -52 138 -146 178 -268 42 -128 61 -234 61 -339 0 -116 -19 -176 -67 -218 l-38 -32 66 -1 c63 0 70 -3 127 -45 34 -24 68 -55 76 -67 29 -45 76 -228 76 -297 0 -60 -3 -71 -35 -116 -20 -28 -46 -58 -58 -67 l-22 -18 25 0 c14 0 59 -17 100 -38 70 -36 78 -44 142 -138 l68 -99 0 -72 0 -73 33 0 c17 -1 64 -9 103 -18 87 -21 131 -56 173 -141 38 -75 38 -104 2 -246 -16 -60 -27 -111 -26 -113 2 -2 32 11 66 29 64 32 205 69 265 69 17 0 52 -9 77 -20 44 -19 46 -23 57 -78 16 -79 52 -192 62 -192 5 0 18 20 30 45 15 31 38 56 75 80 53 35 53 35 168 35 115 0 117 0 168 -34 29 -18 69 -51 90 -73 44 -46 98 -155 117 -233 7 -30 15 -59 18 -64 11 -19 22 23 22 86 0 119 64 250 153 314 29 21 84 52 122 70 l70 33 30 -20 c17 -11 40 -25 51 -31 26 -12 134 -199 161 -276 20 -58 32 -68 25 -21 -7 51 27 260 51 307 l22 42 101 0 c86 0 103 -3 118 -19 9 -10 38 -24 64 -31 26 -7 62 -27 81 -44 26 -24 31 -26 22 -9 -18 35 -14 260 5 319 9 27 22 54 28 60 12 12 185 76 259 96 51 13 56 24 36 75 -6 15 -13 52 -15 80 -8 100 91 304 170 351 18 10 56 25 84 32 29 6 55 16 58 21 3 5 -14 37 -37 71 -60 88 -79 144 -79 234 0 71 2 78 39 132 21 31 52 69 67 83 34 31 107 59 152 59 33 0 43 14 17 24 -21 8 -78 101 -104 169 -15 42 -21 80 -21 141 l0 83 74 149 c40 82 76 158 80 169 3 11 32 46 63 76 46 45 70 59 116 72 32 9 65 13 73 10 27 -10 14 12 -20 32 -18 11 -61 40 -95 65 l-60 45 -1 160 c0 125 3 165 15 181 8 12 31 65 51 120 20 54 51 121 69 149 27 42 41 53 86 69 30 10 57 22 61 25 4 4 -15 28 -42 55 -49 48 -50 51 -50 108 0 53 5 68 58 159 31 55 76 130 100 166 35 55 42 74 42 115 0 29 8 65 20 88 l20 40 178 0 c141 0 182 3 198 15 27 20 116 19 189 -4 56 -17 62 -21 84 -67 13 -27 38 -74 56 -104 42 -71 62 -153 79 -323 2 -15 -3 -69 -10 -120 l-13 -91 -63 -61 c-36 -33 -82 -70 -104 -83 -21 -12 -45 -26 -52 -31 -11 -7 -8 -19 13 -62 57 -112 75 -175 75 -264 0 -46 -7 -117 -15 -157 -9 -40 -22 -122 -30 -183 -12 -88 -22 -125 -51 -187 l-37 -77 -67 -15 c-59 -13 -76 -13 -136 0 -38 7 -75 16 -83 19 -28 11 23 -37 60 -55 51 -27 128 -115 168 -193 19 -37 35 -67 37 -67 9 0 87 139 118 210 27 64 42 118 57 215 11 72 27 164 36 207 15 73 15 80 -6 190 l-23 115 22 79 c28 99 71 208 109 276 48 85 91 205 113 311 19 97 19 102 3 191 -24 122 -67 261 -115 372 -22 50 -40 99 -40 108 0 9 -26 48 -57 87 -81 98 -147 133 -288 149 -82 10 -118 10 -167 1 -112 -22 -201 -52 -291 -99 -114 -59 -290 -200 -339 -271 -33 -47 -38 -62 -38 -110 0 -31 -5 -74 -11 -96 -6 -22 -14 -123 -19 -225 -10 -225 -22 -302 -66 -445 -47 -151 -87 -251 -144 -364 -61 -122 -70 -169 -70 -349 0 -114 -5 -164 -20 -222 -11 -41 -20 -91 -20 -110 0 -42 -32 -94 -106 -170 -61 -63 -84 -117 -84 -199 0 -31 -7 -89 -17 -129 -16 -69 -16 -77 0 -137 9 -35 17 -93 17 -129 0 -38 7 -83 16 -107 16 -38 16 -45 -1 -98 -20 -65 -47 -114 -86 -156 -15 -16 -36 -53 -47 -81 -21 -57 -70 -132 -119 -184 -19 -19 -61 -75 -95 -125 -33 -49 -72 -102 -86 -118 -36 -39 -143 -106 -194 -122 -24 -8 -81 -30 -128 -49 -60 -25 -100 -36 -138 -36 -38 0 -69 -8 -112 -30 -33 -17 -72 -30 -87 -30 -15 0 -38 -11 -52 -24 -15 -14 -60 -43 -101 -66 -65 -36 -81 -41 -129 -38 l-54 3 -18 50 c-14 41 -18 87 -18 260 -1 116 -8 334 -16 485 -11 211 -15 576 -16 1565 -1 857 -6 1402 -15 1625 -17 461 -18 550 0 550 10 0 15 -30 20 -132 19 -383 26 -906 28 -2083 2 -833 7 -1384 15 -1535 6 -129 12 -335 12 -456 1 -273 7 -294 76 -294 56 0 133 37 192 91 32 29 51 39 76 39 19 0 64 13 100 30 47 21 82 30 119 30 34 0 74 10 113 26 33 14 89 37 124 50 111 43 176 98 257 221 30 45 76 106 103 135 56 61 90 115 115 178 10 24 33 61 51 81 40 45 51 64 76 137 19 55 19 56 -1 109 -13 35 -20 78 -20 126 0 40 -7 93 -14 119 -13 40 -13 54 0 100 7 29 14 83 14 120 0 98 29 169 100 243 68 71 100 130 100 182 0 21 7 60 15 87 10 34 15 94 15 193 0 179 16 255 80 384 63 126 92 196 135 337 46 149 65 266 65 417 0 75 8 161 20 229 11 60 20 131 20 158 0 66 45 131 152 221 181 151 298 213 478 253 120 26 126 27 234 14 96 -11 121 -18 186 -51 46 -25 85 -53 100 -74 31 -43 40 -44 40 -1 0 18 16 76 35 127 47 126 47 184 1 311 -19 53 -40 133 -46 179 -6 46 -22 128 -35 181 -14 54 -25 126 -25 162 0 84 68 356 109 434 29 55 55 141 45 151 -2 3 -21 -11 -42 -31 -69 -65 -151 -120 -224 -149 -70 -27 -80 -28 -236 -29 l-162 0 -128 65 c-119 60 -130 68 -174 128 -58 80 -171 304 -210 417 -16 47 -45 145 -63 219 -29 111 -43 148 -85 216 -48 80 -50 85 -50 157 0 44 -7 94 -16 119 -9 25 -16 73 -15 109 1 209 -68 409 -187 534 -37 39 -77 93 -90 118 -38 78 -72 230 -72 327 0 47 -7 131 -15 186 -8 55 -15 139 -15 187 0 48 -4 89 -9 92 -5 4 -34 43 -63 89 -65 99 -113 214 -138 333 -50 237 -44 222 -124 308 -41 43 -93 110 -117 149 -109 175 -277 313 -449 367 -47 15 -105 37 -130 50 -24 12 -68 31 -97 41 -29 10 -73 32 -97 48 -54 37 -114 41 -196 12 l-55 -19 -3 -244 c-2 -159 3 -323 14 -477 9 -129 14 -273 11 -320 -6 -88 -37 -304 -43 -298 -2 1 -13 59 -25 127 -11 69 -36 172 -54 230 -19 58 -41 146 -50 195 -9 50 -32 131 -51 180 -33 89 -34 94 -34 242 0 118 5 171 20 237 21 85 21 87 2 130 -17 37 -27 46 -68 60 -64 22 -109 20 -174 -7z"/>
  <path d="M1156 10517 c-13 -13 -26 -41 -30 -63 -4 -21 -19 -58 -33 -82 -13 -24 -23 -46 -20 -48 2 -3 16 0 31 6 36 13 135 13 175 -1 18 -6 35 -9 38 -5 3 3 -12 29 -34 59 -23 29 -53 76 -67 105 -14 29 -29 52 -32 52 -3 0 -15 -10 -28 -23z"/>
  <path d="M5928 10474 c6 -11 20 -28 32 -39 30 -27 87 -152 105 -232 24 -103 20 -176 -12 -226 -15 -23 -36 -53 -47 -66 l-21 -24 32 17 c43 21 79 20 113 -4 34 -25 80 -42 80 -31 0 5 -7 25 -15 44 -8 20 -15 59 -15 87 0 40 -12 78 -55 175 -30 69 -55 129 -55 134 0 14 -107 152 -131 169 -20 14 -20 13 -11 -4z"/>
  <path d="M873 9980 c-17 -25 -45 -58 -63 -75 -48 -45 -115 -136 -128 -173 -11 -32 -10 -32 54 26 62 56 68 59 145 72 l80 13 -25 26 c-20 21 -25 38 -28 91 l-3 65 -32 -45z"/>
  <path d="M6490 9128 c-30 -66 -27 -75 25 -80 l46 -3 -3 60 c-3 54 -5 60 -26 63 -18 3 -26 -5 -42 -40z"/>
  <path d="M6797 8170 c-24 -33 -52 -56 -83 -70 -26 -11 -44 -23 -40 -27 3 -4 12 -1 18 5 7 7 35 12 63 12 44 -1 55 -5 89 -37 46 -42 76 -114 76 -181 1 -40 2 -44 12 -27 23 39 12 107 -37 238 -26 70 -50 129 -54 132 -4 2 -24 -18 -44 -45z"/>
  <path d="M655 3165 c-17 -8 -65 -14 -112 -15 -46 0 -83 -3 -83 -6 0 -26 44 -184 51 -184 4 0 16 15 25 33 9 17 51 67 92 110 77 78 80 86 27 62z"/>
  <path d="M860 2157 c1 -84 4 -102 43 -202 36 -92 58 -129 130 -224 48 -62 104 -141 125 -175 l37 -61 3 90 c3 77 0 91 -14 100 -88 51 -174 187 -174 276 -1 30 -7 65 -15 79 -9 16 -14 54 -15 103 0 76 0 77 -25 77 -14 0 -41 7 -60 14 l-35 15 0 -92z"/>
  <path d="M6104 2163 c3 -10 8 -30 12 -46 5 -21 9 -25 19 -17 22 18 24 60 4 70 -27 15 -41 12 -35 -7z"/>
  <path d="M5386 1108 c10 -34 12 -34 42 -5 l27 27 -38 0 c-35 0 -38 -2 -31 -22z"/>
  <path d="M5796 1616 c20 -36 42 -66 50 -66 14 0 54 78 54 106 0 10 -12 14 -39 14 -21 0 -52 3 -69 6 l-31 6 35 -66z"/>

  <!--41-->
  <path id="tooth141" onclick="chang1_yes(41)" d="M2937 11940 c-75 -26 -99 -40 -158 -92 -85 -77 -87 -92 -21 -162 60 -64 141 -224 182 -363 35 -118 61 -155 126 -177 45 -15 47 -15 104 14 51 26 63 38 93 92 22 39 38 84 42 118 11 92 43 217 69 267 31 63 39 105 31 158 -5 37 -17 54 -73 109 l-67 66 -120 0 c-107 0 -130 -4 -208 -30z m258 -22 c53 -14 66 -45 13 -32 -34 9 -48 9 -190 -2 -56 -4 -91 -11 -99 -20 -6 -8 -15 -14 -20 -14 -14 0 -10 22 8 42 13 14 32 18 97 19 45 0 90 4 101 9 28 12 38 12 90 -2z m120 -197 c3 -5 -8 -32 -24 -60 -19 -32 -31 -67 -33 -97 -4 -62 -26 -70 -30 -12 -2 34 5 58 32 110 35 67 44 77 55 59z"/>
  <!--31-->
  <path id="tooth131" onclick="chang1_yes(31)" d="M3563 11939 l-43 -30 0 -92 c0 -85 2 -95 30 -137 25 -38 30 -55 30 -110 0 -75 7 -106 57 -248 47 -137 54 -140 160 -80 70 40 85 54 140 134 82 117 123 240 123 366 l0 85 -47 45 c-84 77 -128 93 -278 95 l-130 3 -42 -31z m115 -279 c26 -74 32 -106 30 -154 -2 -36 -8 -61 -15 -64 -10 -3 -13 14 -13 60 0 44 -9 88 -30 148 -33 92 -36 114 -18 108 7 -3 27 -47 46 -98z"/>
  <!--32-->
  <path id="tooth132" onclick="chang1_yes(32)" d="M4217 11782 l-27 -28 0 -285 0 -285 38 -37 c34 -33 43 -37 91 -37 46 0 59 5 93 33 93 77 170 166 258 297 53 78 65 103 66 140 4 105 -68 162 -257 204 -64 14 -143 26 -176 26 -52 0 -63 -3 -86 -28z m473 -127 c10 -37 10 -52 -1 -81 -13 -35 -38 -46 -31 -14 7 31 6 86 -2 113 -6 21 -5 27 7 27 9 0 19 -18 27 -45z m-400 -115 c0 -100 -2 -120 -15 -120 -12 0 -15 20 -15 120 0 100 3 120 15 120 13 0 15 -20 15 -120z"/>
  <!--42-->
  <path id="tooth142" onclick="chang1_yes(42)" d="M2290 11733 c-54 -36 -68 -55 -80 -111 -11 -54 -10 -61 21 -147 26 -73 43 -100 89 -150 30 -33 70 -81 88 -106 17 -26 60 -70 96 -98 55 -44 70 -51 108 -51 41 0 47 3 75 43 43 59 63 138 63 245 0 142 -43 247 -137 333 -57 53 -265 80 -323 42z m210 -28 c0 -12 -14 -15 -65 -15 -60 0 -75 6 -58 23 3 4 33 7 65 7 45 0 58 -3 58 -15z m153 -262 c4 -71 9 -143 13 -160 5 -25 3 -33 -8 -33 -20 0 -38 104 -38 224 0 75 3 96 14 96 11 0 15 -28 19 -127z"/>
  <!--43-->
  <path id="tooth143" onclick="chang1_yes(43)" d="M1863 11505 c-56 -14 -140 -69 -167 -110 -9 -13 -16 -37 -16 -52 0 -15 -14 -107 -31 -203 l-32 -175 24 -44 c45 -85 164 -141 301 -141 64 0 86 -5 140 -30 66 -31 128 -39 146 -17 5 6 15 32 22 57 6 25 20 70 30 100 20 64 18 96 -16 279 -44 226 -104 300 -274 336 -39 8 -72 15 -73 14 -1 -1 -25 -7 -54 -14z m157 -60 c0 -8 -7 -15 -15 -15 -17 0 -139 -65 -193 -102 -26 -18 -39 -40 -62 -108 -16 -47 -30 -102 -30 -122 0 -27 -4 -38 -15 -38 -23 0 -19 68 10 144 14 37 25 75 25 86 0 21 27 42 150 117 86 53 130 66 130 38z m210 -375 c0 -91 -3 -110 -15 -110 -12 0 -15 19 -15 110 0 91 3 110 15 110 12 0 15 -19 15 -110z"/>
  <!--33-->
  <path id="tooth133" onclick="chang1_yes(33)" d="M4870 11499 c-77 -35 -89 -52 -161 -227 l-39 -96 0 -168 0 -168 37 -75 c36 -72 39 -75 72 -75 19 0 43 -7 53 -17 25 -22 62 -5 89 41 11 20 30 38 41 42 12 3 42 25 67 49 51 46 134 105 149 105 6 0 43 22 84 49 40 26 84 51 98 54 14 4 38 18 54 33 27 25 28 31 24 88 -7 87 -50 165 -140 253 -67 67 -80 75 -162 103 -110 37 -198 40 -266 9z m133 -85 c30 -45 97 -99 177 -143 19 -10 62 -46 95 -80 33 -33 66 -61 73 -61 6 0 12 -7 12 -15 0 -31 -36 -13 -98 50 -35 36 -81 75 -101 85 -84 46 -148 99 -185 152 -22 32 -35 61 -31 68 9 15 17 7 58 -56z m-210 -140 c3 -4 2 -15 -4 -26 -17 -32 -59 -244 -59 -297 0 -27 7 -65 15 -84 18 -45 19 -67 2 -67 -18 0 -47 95 -47 152 0 63 26 201 52 271 20 55 27 64 41 51z"/>

  <!--34-->
  <path id="tooth134" onclick="chang1_yes(34)" d="M5290 10947 c-25 -19 -73 -48 -107 -66 -34 -19 -90 -58 -124 -87 -34 -29 -70 -56 -81 -60 -35 -11 -58 -76 -58 -165 0 -81 1 -83 41 -136 23 -29 63 -71 89 -93 l48 -40 126 0 c166 0 204 16 327 136 69 68 100 91 141 105 29 10 63 18 76 19 20 0 27 11 22 35 -1 5 -6 34 -12 65 -5 32 -29 90 -56 139 -46 81 -49 84 -117 116 -68 32 -195 66 -245 65 -14 0 -45 -15 -70 -33z m228 -54 c15 -9 53 -41 85 -72 56 -55 57 -56 57 -113 0 -45 -3 -58 -15 -58 -12 0 -15 13 -15 58 0 55 -2 60 -42 99 -50 47 -96 73 -133 73 -16 0 -25 6 -25 15 0 21 53 20 88 -2z m-188 -68 c0 -3 -7 -16 -15 -29 -14 -21 -14 -24 0 -30 9 -3 27 -29 39 -58 13 -29 36 -70 50 -91 31 -45 32 -50 9 -45 -9 2 -37 41 -62 88 l-46 85 -53 3 c-37 2 -52 7 -52 18 0 9 11 14 35 14 26 0 39 6 51 25 14 22 44 35 44 20z m-120 -263 c0 -51 12 -72 42 -72 10 0 18 -7 18 -15 0 -24 -31 -18 -62 12 -22 21 -28 36 -28 68 0 23 3 45 7 48 16 16 23 4 23 -41z m265 -9 c-11 -7 -22 -13 -27 -13 -4 0 -8 -13 -8 -30 0 -20 -5 -30 -15 -30 -10 0 -15 11 -15 35 0 30 5 37 33 49 38 16 58 9 32 -11z"/>
  <!--44-->
  <path id="tooth144" onclick="chang1_yes(44)" d="M1435 10895 c-86 -27 -135 -66 -169 -135 -18 -36 -38 -93 -45 -127 -12 -61 -11 -63 20 -125 33 -65 65 -112 108 -162 27 -30 153 -96 183 -96 9 0 52 -11 95 -25 110 -35 127 -33 213 25 110 73 106 68 120 148 16 95 1 181 -44 251 -32 50 -108 121 -130 121 -7 0 -61 32 -120 70 -116 76 -144 83 -231 55z m185 -150 c8 -20 16 -25 45 -25 24 0 35 -5 35 -15 0 -9 -9 -15 -25 -15 -15 0 -31 -9 -40 -23 -14 -22 -14 -28 1 -62 l15 -38 -42 -43 -43 -44 22 -39 c25 -44 28 -61 9 -61 -7 0 -21 16 -30 35 -11 24 -26 37 -48 43 -42 10 -50 32 -14 32 19 0 42 14 70 42 l43 41 -16 34 c-15 31 -15 36 1 62 15 25 15 30 2 41 -16 13 -20 42 -8 53 10 11 13 9 23 -18z m-275 -75 c-8 -16 -15 -36 -15 -45 0 -8 -7 -15 -15 -15 -20 0 -19 31 2 68 23 40 49 32 28 -8z m535 -167 c-1 -32 -10 -48 -59 -102 -40 -44 -63 -62 -74 -58 -13 5 -3 20 43 68 49 51 60 69 60 96 0 23 5 33 15 33 11 0 15 -11 15 -37z"/>
  <!--35-->
  <path id="tooth135" onclick="chang1_yes(35)" d="M5692 10513 c-30 -10 -60 -35 -105 -85 -93 -104 -177 -147 -307 -157 -73 -6 -75 -7 -102 -46 -26 -37 -28 -46 -25 -115 2 -41 15 -118 30 -170 25 -89 30 -98 80 -146 67 -63 106 -81 187 -90 80 -8 146 14 217 74 26 22 59 43 73 47 14 4 50 20 80 35 30 16 79 37 109 47 46 15 59 26 88 70 27 43 33 62 33 107 0 191 -119 396 -251 431 -63 17 -53 17 -107 -2z m128 -85 c0 -24 10 -44 38 -73 98 -103 137 -195 112 -269 -18 -55 -27 -43 -26 32 1 84 -24 138 -100 213 -33 33 -54 62 -54 76 0 12 -4 25 -10 28 -18 11 -10 25 15 25 22 0 25 -5 25 -32z m-220 -203 c0 -104 14 -148 64 -194 14 -13 23 -29 19 -34 -4 -7 1 -8 13 -2 10 4 41 10 68 13 39 4 48 2 44 -9 -3 -8 -24 -16 -49 -20 -24 -3 -72 -17 -106 -31 -34 -14 -65 -23 -68 -20 -12 12 -3 20 41 37 l46 17 -35 37 c-57 60 -67 88 -67 201 0 82 3 100 15 100 12 0 15 -17 15 -95z"/>
  <!--45-->
  <path id="tooth145" onclick="chang1_yes(45)" d="M1065 10290 c-33 -11 -75 -33 -92 -50 l-33 -31 0 -150 0 -150 68 -67 c53 -53 77 -70 115 -79 27 -7 67 -26 90 -41 65 -44 146 -62 280 -62 129 0 191 16 265 69 30 22 42 40 51 74 22 88 16 118 -38 188 -78 103 -224 222 -287 234 -20 3 -47 13 -60 22 -43 28 -177 63 -239 62 -33 0 -87 -9 -120 -19z m338 -130 c4 -15 14 -20 41 -20 25 0 36 -4 36 -15 0 -10 -10 -15 -29 -15 -24 0 -31 -6 -40 -31 -16 -46 -16 -47 44 -59 51 -11 63 -18 49 -32 -3 -3 -30 0 -60 7 l-55 13 -10 -27 c-5 -14 -12 -32 -14 -39 -8 -23 -27 -1 -21 24 4 13 2 24 -2 24 -17 0 -95 121 -85 131 7 7 23 -7 47 -40 43 -58 60 -58 78 0 9 30 9 42 0 51 -16 16 -15 48 2 48 7 0 16 -9 19 -20z m267 -143 c0 -8 -11 -24 -25 -37 -29 -27 -34 -80 -10 -100 8 -7 15 -29 15 -49 0 -31 -5 -39 -35 -55 -43 -24 -60 -12 -22 16 32 23 36 66 9 91 -25 22 -17 72 17 114 27 34 51 43 51 20z m-388 -61 c29 -9 59 -29 82 -53 30 -32 35 -45 36 -85 0 -36 -4 -48 -15 -48 -11 0 -15 11 -15 43 0 36 -6 49 -33 75 -18 17 -50 38 -72 45 -21 8 -41 19 -43 25 -5 15 3 15 60 -2z"/>
  <!--36-->
  <path id="tooth136" onclick="chang1_yes(36)" d="M6015 9870 c-22 -11 -61 -19 -87 -20 -76 0 -192 -53 -269 -121 -37 -33 -74 -59 -82 -59 -26 0 -74 -33 -92 -62 -39 -66 -45 -116 -45 -364 0 -191 3 -249 15 -277 8 -20 19 -38 25 -42 6 -3 25 -30 44 -58 33 -52 34 -53 162 -100 145 -53 193 -58 276 -28 29 11 80 27 113 37 80 22 107 42 246 178 84 83 121 127 129 153 7 21 19 49 27 62 12 19 14 54 11 180 -5 202 -10 214 -159 363 -89 88 -127 119 -182 145 -80 38 -80 38 -132 13z m124 -74 c15 -8 40 -33 54 -55 15 -23 32 -41 37 -41 6 0 10 -11 10 -25 0 -14 -4 -25 -8 -25 -9 0 -44 44 -74 91 -9 15 -26 30 -37 34 -12 3 -21 13 -21 21 0 18 4 18 39 0z m-301 -237 c17 -30 33 -41 65 -50 57 -15 114 -45 125 -66 9 -16 12 -16 37 1 16 10 60 26 99 35 l71 17 -1 52 c-2 45 1 52 17 52 17 0 19 -8 19 -64 l0 -63 -81 -16 c-44 -9 -93 -26 -109 -37 -26 -18 -28 -24 -19 -52 5 -17 13 -36 18 -41 11 -11 -14 -86 -57 -172 -42 -83 -44 -99 -9 -103 48 -6 33 -32 -18 -32 -36 0 -45 3 -45 18 0 21 29 96 69 182 17 35 27 68 23 71 -4 4 -45 -1 -92 -12 -47 -11 -95 -22 -107 -24 -36 -8 -122 -83 -145 -128 l-23 -42 -5 55 c-3 35 -15 72 -33 102 -17 30 -23 49 -16 53 13 8 9 12 49 -52 l32 -53 41 34 c58 46 68 51 182 76 55 12 102 24 104 26 2 1 -7 17 -19 34 -16 22 -19 35 -12 42 25 25 -30 66 -121 89 -37 9 -48 17 -58 42 -8 18 -29 46 -48 63 -19 18 -31 36 -27 43 10 16 64 -31 94 -80z m-248 -56 c-1 -5 -7 -19 -15 -33 -8 -14 -14 -47 -15 -73 0 -34 -4 -47 -12 -45 -34 11 -7 158 29 158 7 0 13 -3 13 -7z m794 -105 c57 -204 57 -208 36 -208 -8 0 -54 159 -66 223 -10 57 13 46 30 -15z m-641 -458 c14 -37 57 -55 84 -35 10 8 24 15 31 15 22 0 12 -25 -17 -43 -28 -16 -33 -16 -70 -1 -36 14 -61 49 -61 85 0 21 23 6 33 -21z"/>
  <!--46-->
  <path id="tooth146" onclick="chang1_yes(46)" d="M895 9804 c-75 -14 -83 -18 -133 -67 -84 -81 -112 -128 -112 -182 0 -49 -50 -225 -81 -285 -41 -78 -35 -160 19 -246 20 -32 42 -50 94 -75 37 -18 80 -45 95 -61 18 -19 37 -28 57 -28 33 0 86 -31 159 -92 59 -51 154 -98 197 -98 47 0 102 16 180 51 l65 30 59 122 c32 67 75 140 95 162 53 57 61 83 61 193 -1 125 -18 202 -63 283 -31 56 -44 68 -92 92 -30 15 -68 27 -83 27 -46 0 -173 39 -259 81 -46 21 -87 39 -92 39 -6 0 -22 16 -37 35 -14 19 -31 35 -38 34 -6 0 -47 -7 -91 -15z m-15 -214 c0 -43 4 -60 13 -60 7 0 26 -13 42 -30 28 -29 31 -30 125 -30 88 0 98 -2 118 -23 26 -28 18 -42 -12 -22 -14 11 -48 15 -116 15 -94 0 -97 1 -125 30 -35 37 -51 38 -77 5 -11 -14 -26 -25 -34 -25 -20 0 -18 10 8 37 15 16 22 39 25 80 5 69 9 83 23 83 6 0 10 -25 10 -60z m540 -108 c14 -9 27 -17 29 -18 1 -2 0 -8 -4 -14 -4 -7 -19 -3 -44 11 l-38 21 -77 -48 -76 -49 0 -63 c0 -49 7 -76 30 -125 16 -34 35 -70 42 -79 7 -9 9 -20 6 -23 -15 -16 -48 20 -74 81 l-28 66 -39 -6 c-57 -9 -62 -15 -34 -45 30 -32 59 -86 50 -95 -12 -11 -22 -6 -28 15 -10 32 -75 99 -95 99 -10 0 -37 21 -61 48 l-44 47 35 3 c29 3 40 -2 65 -31 30 -34 30 -34 76 -22 67 18 69 20 69 84 l0 58 81 53 81 52 -32 33 c-53 54 -25 62 33 9 29 -26 63 -54 77 -62z m-730 -250 l0 -67 90 -90 c85 -84 101 -105 82 -105 -4 0 -52 42 -105 94 l-97 94 0 71 c0 56 3 71 15 71 12 0 15 -14 15 -68z m862 53 c3 -3 -3 -47 -13 -98 -10 -50 -18 -108 -18 -127 -1 -43 -25 -80 -52 -80 -24 0 -26 36 -1 42 13 4 21 29 36 124 10 65 21 125 24 132 4 12 15 16 24 7z"/>
  <!--37-->
  <path id="tooth137" onclick="chang1_yes(37)" d="M6405 8986 c-28 -19 -90 -75 -140 -125 -82 -84 -96 -94 -157 -112 -36 -11 -74 -29 -84 -40 -9 -10 -29 -19 -43 -19 -49 0 -106 -22 -148 -57 l-43 -34 0 -167 c0 -209 14 -271 83 -359 26 -32 47 -66 47 -75 0 -47 106 -77 185 -53 28 8 78 15 112 15 34 0 74 5 90 11 15 6 51 15 78 19 101 17 217 63 265 104 14 12 42 29 62 38 24 11 50 37 77 77 51 75 53 111 10 217 -17 43 -40 128 -50 189 -46 281 -62 318 -163 375 -71 41 -117 40 -181 -4z m118 -199 c58 -27 74 -40 84 -65 8 -23 8 -34 0 -39 -6 -3 -13 -1 -15 5 -10 32 -48 63 -102 84 -33 12 -60 29 -60 35 0 19 15 16 93 -20z m-272 -156 c-48 -42 -52 -67 -13 -83 15 -6 44 -27 64 -46 36 -34 39 -35 109 -33 90 3 119 18 153 76 15 25 30 45 35 45 20 0 17 -16 -10 -60 -41 -67 -84 -90 -165 -90 -45 0 -66 -4 -70 -13 -3 -8 1 -49 8 -93 l14 -79 64 -1 c48 -1 65 -5 65 -15 0 -11 -18 -14 -80 -14 l-80 0 -7 75 c-5 41 -10 81 -13 88 -8 20 -61 6 -128 -34 -51 -32 -173 -74 -212 -74 -8 0 -15 6 -15 13 0 9 28 20 77 31 44 9 99 30 127 48 27 16 72 37 98 45 26 7 48 18 48 22 0 15 -73 76 -108 90 -28 12 -32 18 -32 52 0 35 4 41 52 74 65 44 78 27 19 -24z m439 -235 c0 -29 -7 -71 -16 -92 -19 -47 -20 -48 -33 -40 -6 4 -5 21 5 48 7 22 14 62 14 89 0 37 4 49 15 49 11 0 15 -13 15 -54z"/>
  <!--47-->
  <path id="tooth147" onclick="chang1_yes(47)" d="M591 8813 c-75 -23 -90 -57 -91 -213 -1 -103 -4 -123 -30 -190 -25 -64 -30 -89 -30 -165 0 -49 5 -106 10 -126 12 -43 149 -189 177 -189 11 0 28 -7 39 -15 15 -11 57 -14 204 -15 167 0 188 -2 215 -20 41 -27 60 -26 132 12 62 33 63 34 92 113 47 124 61 177 74 288 9 73 9 119 2 161 -9 52 -14 61 -51 87 -22 15 -83 44 -134 63 -52 19 -107 48 -124 64 -17 16 -52 43 -77 60 -25 17 -51 37 -58 46 -8 9 -28 16 -46 16 -19 0 -54 9 -80 20 -57 24 -147 25 -224 3z m369 -174 c8 -22 23 -47 34 -55 25 -17 68 -18 84 -2 19 19 27 0 8 -21 -10 -11 -32 -21 -50 -23 -26 -2 -36 -11 -58 -53 -32 -58 -33 -65 -13 -65 10 0 15 -10 15 -29 0 -22 9 -34 40 -55 48 -32 66 -33 89 -4 11 13 24 19 34 15 20 -7 23 -27 5 -27 -7 0 -22 -12 -33 -27 -27 -33 -53 -28 -118 22 -34 26 -47 43 -47 60 0 14 -4 25 -10 25 -5 0 -10 -6 -10 -13 0 -7 -16 -37 -35 -67 -47 -75 -47 -117 0 -148 34 -22 46 -42 24 -42 -5 0 -27 11 -47 25 -41 28 -93 33 -112 10 -7 -8 -23 -15 -36 -15 -15 0 -24 6 -24 15 0 8 8 15 18 15 10 0 27 6 38 14 11 8 31 16 44 18 19 2 26 10 30 33 3 17 13 45 23 63 l18 34 -63 -6 c-35 -3 -89 -8 -121 -12 -71 -7 -97 10 -97 63 0 45 28 46 32 1 l3 -33 55 2 c30 2 90 5 133 9 l78 6 47 94 c42 86 45 95 29 106 -16 13 -47 77 -47 98 0 27 28 5 40 -31z m318 -122 c57 -61 64 -132 28 -299 -39 -187 -42 -192 -86 -222 -44 -29 -60 -32 -60 -13 0 6 18 22 39 34 37 21 39 26 60 115 35 153 43 210 39 266 -5 57 -33 105 -64 110 -35 6 -45 12 -39 22 11 18 61 11 83 -13z"/>
  <!--38-->
  <path id="tooth138" onclick="chang1_yes(38)" d="M6620 8010 c-73 -38 -106 -49 -143 -49 -27 -1 -65 -10 -87 -21 -32 -16 -59 -20 -152 -20 -62 0 -131 -5 -153 -11 -90 -24 -138 -116 -116 -219 6 -28 11 -97 11 -154 0 -98 1 -105 29 -142 46 -63 102 -111 156 -134 217 -94 249 -94 478 0 95 39 177 76 184 83 7 7 24 71 38 142 20 105 25 159 25 285 0 174 -11 214 -69 263 -48 40 -88 35 -201 -23z m-130 -134 c0 -2 -11 -24 -25 -47 -27 -48 -31 -97 -14 -148 9 -24 15 -30 28 -25 9 4 43 9 76 11 80 6 111 19 126 54 8 20 15 27 22 20 7 -7 6 -20 -2 -39 -16 -37 -65 -59 -149 -65 -70 -6 -82 -11 -64 -29 7 -7 12 -25 12 -41 0 -17 8 -36 18 -43 21 -16 106 -18 134 -3 27 15 35 3 13 -21 -14 -16 -31 -20 -76 -20 -32 0 -61 5 -65 11 -7 13 -84 -58 -84 -78 0 -7 -7 -13 -15 -13 -25 0 -17 34 15 65 25 24 30 37 30 75 0 25 -5 51 -12 58 -8 8 -46 12 -103 12 -84 0 -95 -2 -138 -30 -26 -16 -52 -30 -57 -30 -6 0 -10 -6 -10 -13 0 -17 -38 -53 -46 -44 -3 3 -1 14 5 25 6 12 11 39 11 61 0 30 4 41 15 41 9 0 15 -9 15 -25 0 -14 5 -25 10 -25 6 0 10 3 10 8 0 4 20 19 44 35 38 24 53 27 124 27 44 0 83 3 86 8 2 4 0 28 -6 53 -14 59 -4 111 28 149 22 26 44 39 44 26z"/>
  <!--48-->
  <path id="tooth148" onclick="chang1_yes(48)" d="M450 7883 c-74 -20 -103 -50 -159 -167 l-48 -99 13 -73 c22 -125 104 -217 320 -356 138 -89 164 -98 288 -98 l104 0 33 37 c18 21 57 76 88 123 30 47 71 104 91 126 85 99 113 244 65 340 -36 72 -58 88 -165 120 -79 23 -121 29 -250 33 -96 4 -163 11 -177 19 -28 16 -133 13 -203 -5z m266 -80 c19 -59 23 -62 102 -65 49 -2 77 -7 80 -15 2 -9 -7 -13 -27 -13 -32 0 -37 -9 -22 -39 7 -12 1 -33 -20 -77 -16 -32 -32 -75 -35 -94 -4 -32 -1 -37 34 -62 l38 -27 35 26 c19 15 51 42 72 62 32 30 37 41 37 78 0 32 4 43 15 43 11 0 15 -12 15 -48 0 -43 -4 -52 -42 -88 -24 -22 -62 -55 -85 -73 l-43 -33 -34 21 c-18 12 -39 28 -46 36 -9 11 -34 15 -94 15 -89 0 -96 3 -139 62 -31 42 -38 108 -12 108 10 0 15 -10 15 -33 0 -18 11 -49 26 -70 l25 -38 72 3 72 3 20 55 c11 30 28 69 37 85 24 45 0 84 -52 85 -29 0 -70 52 -70 88 0 26 18 29 26 5z m152 -613 c29 0 55 8 80 25 42 29 52 31 52 11 0 -23 -84 -66 -130 -66 -39 0 -112 29 -125 50 -16 25 9 28 43 5 25 -17 50 -25 80 -25z"/>
  <!--18-->
  <path id="tooth118" onclick="chang1_yes(18)" d="M550 5021 c-68 -11 -123 -27 -157 -44 -63 -32 -123 -106 -123 -150 0 -64 -33 -204 -61 -257 -26 -49 -29 -65 -29 -144 0 -83 2 -93 34 -150 42 -75 69 -101 125 -121 59 -20 218 -21 241 0 18 17 193 73 260 84 25 4 55 13 67 19 12 7 39 12 60 12 46 0 124 39 140 70 6 12 17 66 23 119 11 84 10 114 -4 217 -19 137 -15 131 -168 237 -46 32 -94 67 -108 77 -20 16 -168 54 -190 49 -3 -1 -52 -9 -110 -18z m115 -216 c49 -30 75 -32 82 -5 5 20 33 29 33 10 0 -20 -24 -60 -37 -60 -17 0 -17 -15 4 -68 12 -33 20 -41 32 -35 9 4 39 8 68 8 43 0 57 5 81 28 40 39 54 16 16 -25 -19 -20 -25 -32 -16 -35 6 -3 12 -14 12 -26 0 -12 9 -51 20 -86 l20 -64 -31 -48 c-17 -27 -34 -49 -38 -49 -20 0 -17 15 9 56 l28 45 -20 72 c-31 113 -62 127 -184 83 -80 -29 -91 -40 -115 -103 -9 -26 -23 -63 -30 -80 -12 -30 -11 -34 14 -61 31 -32 35 -48 10 -36 -10 4 -45 10 -78 13 -64 6 -77 24 -23 29 32 3 34 6 62 89 33 99 35 95 -62 140 -70 33 -124 40 -141 19 -16 -19 -31 -21 -31 -4 0 23 34 48 64 48 35 0 126 -34 174 -66 l34 -22 51 31 c29 17 54 32 56 33 9 6 -33 106 -48 112 -9 3 -22 12 -29 19 -7 7 -22 19 -34 27 -11 8 -17 19 -13 25 9 15 14 14 60 -14z m-365 -370 c0 -127 39 -194 113 -195 26 0 37 -4 37 -15 0 -22 -66 -19 -105 5 -44 28 -75 112 -75 209 0 56 3 71 15 71 12 0 15 -15 15 -75z"/>
  <!--28-->
  <path id="tooth128" onclick="chang1_yes(28)" d="M6416 4995 c-16 -12 -56 -15 -193 -15 l-172 0 -16 -30 c-8 -16 -15 -52 -15 -79 0 -44 -6 -60 -46 -117 -25 -37 -56 -89 -70 -115 -13 -27 -37 -70 -54 -96 -23 -35 -30 -59 -30 -96 0 -43 5 -54 46 -102 26 -30 61 -59 78 -66 17 -7 46 -26 65 -42 63 -54 80 -57 334 -57 230 0 235 0 278 25 24 13 66 47 93 74 49 49 50 53 62 138 19 139 -12 336 -65 411 -10 15 -28 50 -41 79 -12 28 -29 58 -38 66 -43 35 -180 49 -216 22z m118 -74 c69 -21 125 -77 126 -126 0 -16 7 -41 15 -55 18 -31 19 -70 2 -70 -14 0 -36 57 -44 113 -12 90 -132 149 -231 114 -58 -21 -72 -21 -72 -2 0 9 9 15 23 15 12 1 33 7 47 15 33 19 64 18 134 -4z m-377 -124 c-104 -159 -129 -207 -109 -207 4 0 27 16 49 35 23 19 47 35 55 35 8 0 29 -16 48 -35 33 -34 60 -42 94 -29 13 5 16 23 16 89 0 83 0 83 32 104 43 27 66 9 26 -21 -26 -19 -28 -24 -28 -99 l0 -79 28 0 c23 0 33 -10 60 -55 18 -30 35 -55 37 -55 2 0 27 9 55 20 60 24 60 24 60 7 0 -7 -19 -20 -42 -28 -32 -12 -44 -23 -54 -50 -16 -44 -17 -112 -2 -127 16 -16 1 -29 -20 -16 -21 13 -29 103 -12 134 8 15 8 24 -2 34 -7 7 -25 34 -40 60 -25 42 -31 46 -67 46 -29 0 -54 -10 -98 -39 -78 -52 -91 -68 -95 -115 -2 -23 -10 -43 -20 -50 -21 -13 -36 0 -20 16 7 7 12 28 12 48 0 28 8 43 38 72 20 20 47 41 59 47 22 11 21 12 -22 52 l-43 40 -46 -33 c-24 -18 -45 -38 -45 -44 -1 -5 -17 -25 -36 -44 l-35 -34 0 30 c0 66 55 183 137 292 27 36 54 35 30 -1z"/>
  <!--27-->
  <path id="tooth127" onclick="chang1_yes(27)" d="M5820 4224 c-44 -19 -82 -79 -122 -194 -17 -47 -39 -99 -49 -116 -16 -27 -19 -51 -19 -175 l0 -144 73 -57 c51 -41 99 -68 167 -94 52 -20 109 -50 125 -65 17 -16 59 -38 93 -50 34 -11 67 -29 72 -39 12 -23 75 -48 163 -64 57 -11 80 -11 124 -1 30 7 55 14 57 16 2 2 16 29 31 59 35 68 85 334 92 491 l5 105 -42 102 c-23 56 -53 113 -66 127 l-23 25 -191 0 c-220 0 -264 8 -311 56 -30 31 -38 34 -88 33 -31 0 -72 -7 -91 -15z m60 -129 c0 -3 -14 -24 -31 -48 -28 -37 -30 -48 -27 -97 3 -33 14 -70 27 -92 l23 -38 117 0 c65 0 120 3 124 6 3 4 -8 27 -25 52 -29 41 -58 117 -58 149 0 28 65 43 190 43 123 0 200 -14 200 -37 0 -15 -46 -17 -55 -3 -4 6 -61 10 -139 10 -160 0 -175 -6 -156 -66 7 -21 28 -59 47 -83 35 -46 38 -57 24 -80 -9 -13 14 -68 34 -83 6 -4 65 -8 131 -8 92 0 124 -3 133 -14 6 -8 21 -16 32 -19 20 -5 21 -3 15 81 -3 48 -8 104 -12 125 -5 28 -3 37 8 37 19 0 38 -96 38 -196 0 -76 -2 -82 -29 -108 -52 -50 -56 -73 -25 -152 15 -38 29 -89 31 -114 4 -44 3 -46 -32 -63 -46 -22 -135 -23 -135 -2 0 11 12 15 51 15 68 0 89 13 89 53 0 18 -6 42 -14 53 -8 11 -21 45 -29 74 -15 61 -8 100 24 136 23 24 24 34 5 34 -7 0 -19 7 -26 15 -10 12 -39 15 -142 15 l-129 0 -21 36 -21 36 -18 -43 c-29 -71 -25 -93 26 -144 25 -25 43 -50 40 -55 -3 -5 5 -12 17 -15 28 -7 83 -89 74 -111 -5 -12 -14 -4 -39 32 -36 54 -75 72 -159 73 -37 1 -48 5 -48 17 0 14 10 16 60 12 33 -2 60 -1 60 2 0 4 -18 21 -40 39 -47 38 -52 71 -20 151 11 28 20 55 20 60 0 6 -47 10 -113 10 -127 0 -127 0 -166 77 -14 28 -21 61 -21 98 0 48 5 62 32 96 27 33 58 52 58 34z"/>
  <!--17-->
  <path id="tooth117" onclick="chang1_yes(17)" d="M770 4194 c-19 -8 -62 -22 -96 -30 -57 -15 -69 -23 -136 -93 -40 -42 -107 -98 -148 -125 -85 -55 -145 -109 -166 -148 -19 -36 -18 -92 2 -108 35 -30 114 -258 114 -332 0 -45 6 -67 27 -102 35 -58 77 -76 181 -76 88 0 113 10 233 98 43 31 96 59 128 69 31 9 72 26 91 39 24 17 49 24 82 24 68 0 111 30 155 110 20 36 53 83 74 106 58 65 61 74 39 133 -11 28 -20 71 -20 94 0 34 -6 49 -26 68 -14 13 -43 58 -64 99 -54 107 -75 122 -207 159 -124 34 -208 39 -263 15z m298 -124 c37 -27 42 -35 42 -71 0 -55 -21 -92 -99 -172 -50 -52 -85 -78 -148 -109 -46 -22 -86 -44 -89 -49 -2 -5 0 -26 5 -46 8 -28 6 -64 -4 -132 -8 -51 -16 -96 -19 -99 -16 -15 -18 17 -7 105 9 71 10 106 2 126 l-11 28 -43 -26 c-36 -20 -57 -25 -115 -25 -43 0 -74 -5 -78 -12 -4 -6 -6 -40 -5 -75 2 -52 0 -63 -13 -63 -13 0 -16 12 -16 53 0 28 -7 74 -15 101 -19 61 -19 66 0 66 8 0 15 -9 15 -20 0 -18 7 -20 89 -20 77 0 95 3 135 26 25 14 46 27 46 30 0 2 -17 12 -38 23 -41 21 -82 83 -82 125 0 17 14 42 38 68 47 50 67 36 22 -15 -16 -19 -30 -44 -30 -55 0 -33 33 -81 63 -93 16 -7 34 -18 41 -25 10 -10 29 -4 92 28 123 61 234 179 234 247 0 30 -7 40 -40 64 -22 16 -40 33 -40 38 0 17 27 9 68 -21z m162 -309 c0 -53 -18 -92 -62 -130 -25 -22 -39 -28 -44 -20 -4 7 5 24 25 41 36 33 51 65 51 114 0 24 5 34 15 34 11 0 15 -11 15 -39z"/>
  <!--16-->
  <path id="tooth116" onclick="chang1_yes(16)" d="M1176 3390 c-16 -5 -54 -10 -85 -11 -44 -2 -65 -9 -101 -35 -25 -17 -68 -39 -96 -48 -43 -14 -70 -36 -180 -149 -72 -72 -140 -148 -152 -169 -44 -72 -33 -183 27 -277 19 -30 31 -61 31 -82 0 -37 51 -187 76 -226 8 -13 31 -30 52 -38 20 -9 46 -24 57 -35 11 -10 45 -30 76 -44 52 -24 60 -25 135 -16 174 20 281 54 385 121 71 45 225 216 238 264 14 51 14 180 0 264 -18 108 -84 285 -129 347 -56 74 -121 120 -174 122 -22 1 -57 6 -76 12 -40 11 -45 11 -84 0z m155 -236 c55 -28 69 -76 69 -234 0 -118 -2 -140 -15 -140 -12 0 -15 17 -15 90 0 82 -2 90 -19 90 -11 0 -26 -6 -33 -13 -7 -7 -34 -25 -59 -40 -31 -19 -54 -42 -72 -76 -15 -27 -34 -51 -42 -55 -8 -3 -20 -17 -27 -31 -11 -24 -8 -29 32 -70 l44 -45 83 0 83 0 0 -30 0 -30 -75 0 c-54 0 -75 -4 -75 -13 0 -18 -40 -41 -52 -29 -5 5 -3 14 7 22 27 23 17 54 -35 105 -27 27 -50 55 -50 62 0 22 -133 17 -180 -7 -39 -20 -39 -20 -42 -87 -2 -42 -8 -68 -15 -71 -10 -3 -13 16 -13 74 0 74 -2 80 -32 111 -42 43 -29 54 17 14 20 -17 39 -31 43 -31 4 0 22 9 40 20 24 15 50 20 105 20 l72 0 18 73 c15 64 15 79 4 112 -8 21 -20 42 -28 47 -71 38 -199 121 -199 129 0 17 24 9 94 -35 39 -24 87 -51 106 -61 19 -10 36 -19 38 -20 2 -2 9 -26 17 -55 12 -44 11 -58 -1 -98 -17 -59 -17 -63 1 -55 9 3 25 23 35 44 11 21 36 51 56 66 20 15 51 40 68 55 18 15 44 30 59 33 22 6 27 13 27 39 0 32 -32 96 -48 96 -5 0 -26 13 -46 29 -21 16 -42 32 -49 35 -9 3 -8 7 2 15 11 7 23 3 44 -15 16 -14 42 -31 58 -40z"/>
  <!--26-->
  <path id="tooth126" onclick="chang1_yes(26)" d="M5688 3386 c-68 -21 -113 -78 -199 -253 l-79 -161 0 -101 c0 -109 15 -165 63 -235 34 -51 103 -96 145 -96 20 0 67 -18 119 -45 47 -25 92 -45 100 -45 23 0 176 -104 211 -144 17 -20 38 -49 47 -65 14 -28 58 -51 97 -51 25 0 108 46 131 72 13 16 17 39 17 106 l0 86 49 51 c61 62 92 145 99 262 4 79 3 84 -36 165 -46 94 -107 170 -161 198 -20 10 -67 50 -106 89 -61 63 -78 74 -146 96 -49 17 -86 36 -104 55 -28 29 -31 30 -119 29 -50 -1 -108 -6 -128 -13z m179 -63 c42 -11 73 -23 73 -30 0 -17 -24 -16 -84 2 -76 23 -122 19 -177 -15 -30 -18 -51 -25 -55 -19 -7 13 -3 17 49 51 51 32 93 35 194 11z m211 -202 c100 -28 138 -47 161 -80 41 -57 19 -71 -26 -17 -21 26 -47 41 -105 60 -94 32 -99 32 -127 2 -20 -22 -22 -32 -18 -98 8 -125 25 -173 90 -245 17 -20 31 -23 88 -23 60 0 72 4 120 36 68 45 79 59 79 106 0 27 4 38 15 38 10 0 15 -10 15 -30 0 -50 -25 -97 -62 -115 -18 -10 -48 -31 -65 -48 -31 -29 -33 -36 -33 -95 0 -46 -3 -63 -12 -60 -8 3 -14 29 -16 71 l-3 66 -62 3 -62 3 -48 64 c-26 35 -51 76 -54 92 -3 16 -8 29 -10 29 -3 0 -20 -12 -37 -27 -17 -16 -42 -35 -55 -43 l-23 -15 21 -54 c29 -77 67 -128 100 -134 31 -7 58 -42 68 -87 4 -23 2 -30 -11 -30 -9 0 -16 7 -16 15 0 9 -6 28 -14 44 -16 31 -77 49 -174 54 -71 3 -71 21 1 25 31 2 57 4 57 5 0 1 -15 42 -34 90 l-35 87 37 20 c41 22 102 75 102 89 0 17 -94 41 -162 41 -71 0 -116 14 -155 49 -28 24 -29 41 -3 41 11 0 20 -5 20 -10 0 -6 15 -19 33 -30 24 -15 50 -20 105 -20 40 0 81 -4 90 -9 9 -4 29 -11 45 -15 27 -6 27 -6 27 48 0 50 3 58 38 90 20 20 38 36 40 36 1 0 33 -9 70 -19z"/>
  <!--25-->
  <path id="tooth125" onclick="chang1_yes(25)" d="M5406 2494 c-50 -18 -69 -35 -117 -106 -35 -52 -39 -63 -39 -121 0 -82 18 -133 82 -229 39 -60 56 -78 73 -78 22 0 75 -50 75 -71 0 -6 26 -21 57 -35 31 -14 73 -38 93 -53 19 -16 68 -45 107 -65 65 -32 81 -36 151 -36 l79 0 30 43 c17 23 36 63 43 87 7 25 21 62 31 82 37 73 15 295 -37 365 -41 55 -241 171 -376 219 -52 18 -201 17 -252 -2z m302 -154 c40 -33 78 -60 85 -60 8 0 27 -7 44 -15 16 -8 39 -13 51 -10 18 3 26 -4 43 -37 27 -53 10 -74 -19 -24 -14 23 -26 34 -36 30 -8 -3 -28 2 -45 10 -40 21 -41 21 -41 -13 0 -24 -8 -34 -43 -54 -30 -18 -54 -45 -80 -87 l-36 -61 29 -17 c17 -9 30 -20 30 -24 0 -19 -25 -16 -80 12 -60 30 -81 56 -36 44 19 -4 29 1 49 28 13 18 28 43 32 56 4 13 29 39 56 59 27 19 49 42 49 50 0 24 -36 68 -90 109 -45 34 -64 64 -42 64 5 0 41 -27 80 -60z m-218 12 c0 -5 -10 -18 -22 -30 -13 -11 -31 -37 -42 -56 -18 -33 -18 -37 -2 -60 20 -31 20 -36 1 -36 -20 0 -48 56 -39 82 3 11 24 41 46 64 39 42 58 54 58 36z m520 -394 c0 -7 -12 -43 -26 -80 -26 -64 -29 -68 -81 -89 l-55 -22 -64 34 c-35 19 -64 40 -64 47 0 19 19 14 72 -18 56 -35 56 -35 107 -14 25 10 41 24 45 38 17 69 66 145 66 104z"/>
  <!--15-->
  <path id="tooth115" onclick="chang1_yes(15)" d="M1536 2446 c-14 -19 -45 -45 -68 -58 -24 -14 -72 -43 -108 -65 -70 -43 -148 -73 -189 -73 -14 0 -56 -8 -93 -17 l-68 -17 0 -69 c0 -37 7 -84 15 -104 8 -19 15 -55 15 -79 0 -55 53 -165 102 -210 37 -36 134 -84 167 -84 32 0 98 37 117 65 8 13 32 29 52 36 20 7 61 27 90 46 29 18 75 42 103 52 81 31 137 69 179 122 36 46 40 56 40 108 0 60 -27 179 -57 249 -11 26 -39 59 -73 87 -54 44 -56 45 -126 45 -70 0 -72 -1 -98 -34z m148 -120 c63 -26 82 -85 51 -159 -9 -22 -15 -67 -15 -112 0 -60 -3 -75 -15 -75 -12 0 -15 15 -15 75 0 45 6 90 15 112 28 67 16 112 -35 133 -16 7 -30 19 -30 26 0 17 3 17 44 0z m-460 -95 c7 -11 -21 -39 -69 -65 -33 -18 -41 -28 -43 -55 -2 -19 3 -50 12 -70 8 -20 23 -63 32 -96 19 -72 59 -145 79 -145 8 0 15 -7 15 -15 0 -9 -9 -15 -23 -15 -31 0 -70 68 -101 174 -13 46 -29 93 -35 104 -14 26 -14 77 -1 103 6 10 28 28 49 38 20 11 43 27 50 35 15 18 27 20 35 7z m261 0 c3 -6 -8 -20 -24 -32 -17 -12 -32 -28 -35 -35 -3 -7 13 -32 35 -55 42 -45 46 -60 24 -99 -23 -41 -19 -49 33 -52 34 -2 47 -7 47 -18 0 -11 -13 -16 -48 -18 -42 -3 -51 -7 -67 -35 -11 -18 -21 -36 -23 -41 -2 -5 -9 -6 -15 -2 -10 6 -6 19 13 53 18 33 22 49 15 58 -8 9 -4 26 12 59 l22 47 -44 44 c-33 33 -54 46 -79 48 -44 3 -55 27 -13 27 36 0 94 23 112 44 14 18 26 20 35 7z"/>

  <!--24-->
  <path id="tooth124" onclick="chang1_yes(24)" d="M5265 1906 c-22 -7 -50 -19 -63 -27 -61 -38 -142 -209 -142 -301 0 -77 28 -176 52 -184 12 -3 69 -39 128 -80 96 -65 109 -78 117 -112 l9 -37 67 -3 c46 -2 88 4 135 18 38 11 87 20 109 20 36 0 41 4 64 43 41 72 49 108 49 220 0 106 -1 110 -35 171 -42 76 -56 89 -120 114 -88 35 -145 73 -171 113 -13 22 -31 39 -39 39 -8 0 -15 5 -15 10 0 14 -97 11 -145 -4z m70 -126 c3 -6 -16 -24 -44 -41 -28 -17 -55 -43 -61 -59 -13 -32 -47 -66 -56 -58 -13 14 55 110 97 138 50 32 55 34 64 20z m152 -64 c15 -23 39 -41 77 -57 31 -12 56 -29 56 -37 0 -15 -24 -10 -72 14 -41 21 -48 17 -48 -24 0 -21 -7 -47 -15 -60 -15 -20 -14 -24 26 -67 52 -57 43 -73 -11 -20 l-40 39 -43 -43 c-28 -29 -38 -45 -29 -48 30 -11 62 -50 68 -80 9 -45 -18 -45 -34 0 -12 34 -82 84 -149 108 -18 6 -33 17 -33 25 0 17 2 17 47 -1 19 -8 46 -15 58 -15 25 0 83 58 109 109 20 38 21 113 1 150 -13 26 -11 41 4 41 3 0 16 -15 28 -34z"/>
  <!--14-->
  <path id="tooth114" onclick="chang1_yes(14)" d="M1690 1847 c-30 -13 -73 -34 -95 -48 -22 -14 -62 -34 -89 -45 -33 -13 -55 -30 -69 -52 -27 -46 -64 -62 -141 -62 l-66 0 2 -102 c1 -81 6 -110 21 -135 10 -18 23 -33 27 -33 4 0 26 -15 48 -33 22 -19 54 -39 70 -46 17 -7 36 -25 42 -41 7 -16 34 -50 61 -75 46 -43 51 -45 109 -45 56 0 66 4 118 42 31 23 77 61 102 84 46 43 154 113 213 137 41 18 57 64 57 167 0 72 0 72 -59 157 -52 75 -67 89 -126 119 -81 42 -143 45 -225 11z m132 -139 c3 -40 5 -43 48 -59 40 -15 47 -22 63 -65 10 -27 23 -53 28 -59 13 -13 11 -67 -2 -63 -6 2 -17 19 -23 38 -34 94 -49 114 -98 129 l-48 15 0 53 c0 39 4 53 14 53 10 0 16 -14 18 -42z m-178 4 c6 -10 -41 -82 -53 -82 -4 0 -13 -18 -20 -39 -10 -33 -9 -45 6 -75 14 -31 22 -36 50 -36 38 0 40 -5 13 -45 l-19 -30 26 -27 c30 -32 57 -35 110 -13 24 10 40 12 46 6 7 -7 -5 -16 -32 -27 -29 -11 -46 -26 -57 -50 -14 -29 -21 -34 -50 -34 -42 0 -43 5 -4 25 32 17 40 35 15 35 -8 0 -32 17 -53 38 -35 35 -37 41 -25 57 11 17 10 23 -16 49 -37 39 -52 78 -45 116 6 30 6 30 -40 30 -34 0 -46 4 -46 15 0 11 12 15 51 15 61 0 84 11 104 50 15 30 29 37 39 22z m-294 -195 c0 -7 -4 -17 -9 -22 -6 -6 1 -26 19 -52 33 -49 25 -65 -12 -25 -44 47 -52 71 -32 93 20 22 34 25 34 6z"/>
  <!--13-->
  <path id="tooth113" onclick="chang1_yes(13)" d="M2137 1443 c-4 -3 -7 -19 -7 -34 0 -25 -5 -28 -51 -38 -63 -14 -188 -95 -279 -181 -81 -77 -92 -83 -160 -90 -47 -4 -57 -9 -68 -32 -12 -25 -8 -37 49 -155 56 -114 70 -134 125 -183 39 -34 91 -66 136 -86 40 -17 95 -45 122 -62 91 -58 182 -39 236 50 18 29 48 72 66 96 24 32 36 61 45 115 7 40 18 81 25 92 16 24 61 195 70 263 5 40 2 58 -20 103 -38 81 -81 118 -158 135 -69 15 -121 18 -131 7z m223 -284 c0 -66 -4 -86 -21 -110 -11 -16 -27 -29 -35 -29 -19 0 -17 10 6 40 16 20 20 41 20 103 0 62 3 77 15 77 12 0 15 -16 15 -81z m-540 -194 l0 -45 62 -31 c64 -32 89 -56 108 -100 16 -37 49 -49 140 -49 74 0 81 2 96 26 25 37 41 14 18 -25 -18 -31 -19 -31 -101 -31 -107 0 -164 25 -186 81 -13 32 -26 43 -91 74 l-76 38 0 53 c0 41 4 54 15 54 11 0 15 -12 15 -45z"/>
  <!--23-->
  <path id="tooth123" onclick="chang1_yes(23)" d="M4990 1368 c-19 -5 -78 -25 -131 -44 l-96 -35 -16 -53 c-12 -36 -17 -88 -17 -165 0 -104 2 -115 30 -171 17 -33 46 -85 65 -114 33 -52 75 -148 75 -173 0 -7 14 -32 31 -57 l30 -46 82 0 c73 0 91 4 152 34 72 34 139 95 170 156 18 35 16 74 -6 128 -13 30 -11 36 20 93 30 54 32 62 18 82 -7 12 -22 45 -31 74 -36 109 -109 196 -230 272 -52 32 -84 37 -146 19z m155 -84 c51 -23 95 -67 95 -93 0 -19 -19 -12 -36 15 -10 14 -44 39 -76 55 -32 16 -56 34 -53 39 8 14 9 13 70 -16z m-345 -184 c0 -77 11 -119 42 -162 16 -22 3 -35 -17 -18 -38 31 -55 87 -55 175 0 69 3 85 15 85 12 0 15 -16 15 -80z m380 -33 c0 -7 -7 -34 -16 -59 -11 -34 -23 -49 -45 -58 -26 -11 -29 -17 -29 -57 0 -55 15 -62 73 -34 61 30 107 38 107 18 0 -9 -14 -17 -37 -22 -42 -8 -115 -72 -134 -117 -12 -30 -56 -41 -56 -13 0 8 6 15 13 15 7 0 16 10 20 23 4 12 11 25 17 29 6 4 2 17 -12 33 -12 16 -21 42 -21 63 0 32 -1 34 -27 28 -73 -18 -83 -19 -83 -2 0 10 9 16 23 17 12 0 51 13 87 27 62 26 66 29 80 74 14 44 40 66 40 35z"/>
  <!--12-->
  <path id="tooth112" onclick="chang1_yes(12)" d="M2610 1006 c-25 -7 -84 -32 -132 -56 -86 -43 -88 -44 -88 -80 0 -69 -29 -153 -61 -178 -31 -25 -99 -160 -99 -198 0 -14 11 -30 26 -41 15 -10 47 -37 73 -59 25 -23 64 -49 86 -58 22 -9 54 -32 70 -50 51 -58 214 -101 287 -77 35 12 58 41 107 135 l31 58 0 192 c0 163 -3 200 -19 246 -11 30 -22 76 -26 103 -10 66 -29 77 -130 76 -44 0 -100 -6 -125 -13z m48 -53 c2 -8 -5 -13 -18 -13 -25 0 -77 -25 -105 -50 -11 -10 -29 -20 -39 -22 -25 -4 -33 20 -9 29 10 3 32 17 48 29 56 42 113 54 123 27z m166 -92 c19 -107 19 -101 3 -101 -14 0 -51 165 -41 181 13 22 23 2 38 -80z m-404 -297 c0 -31 100 -188 133 -208 12 -8 41 -17 65 -21 28 -5 42 -12 42 -22 0 -11 -6 -14 -22 -9 -13 3 -40 9 -60 12 -43 7 -57 21 -132 132 -57 84 -74 142 -41 142 10 0 15 -10 15 -26z"/>
  <!--22-->
  <path id="tooth122" onclick="chang1_yes(22)" d="M4327 968 c-29 -56 -41 -212 -32 -428 5 -107 8 -225 8 -262 0 -77 14 -91 66 -64 17 9 55 16 86 16 88 0 189 39 283 109 84 64 97 84 122 189 26 110 -13 203 -133 328 -68 70 -88 85 -128 94 -26 6 -55 20 -65 31 -14 16 -31 19 -103 19 l-86 0 -18 -32z m240 -42 c10 -13 34 -31 53 -41 48 -24 80 -55 80 -77 0 -25 -23 -23 -35 4 -6 13 -31 33 -56 45 -40 18 -89 67 -89 87 0 15 30 4 47 -18z m233 -354 c0 -46 -2 -50 -77 -124 -43 -41 -103 -92 -133 -112 -50 -33 -61 -36 -127 -36 l-73 0 -20 41 c-14 26 -20 55 -18 81 4 57 28 63 28 8 0 -22 7 -54 15 -70 15 -28 19 -30 76 -30 73 0 115 25 227 134 67 66 72 73 72 113 0 32 4 43 15 43 11 0 15 -12 15 -48z"/>
  <!--21-->
  <path id="tooth121" onclick="chang1_yes(21)" d="M3905 957 c-95 -51 -131 -78 -164 -128 -39 -57 -61 -126 -61 -194 0 -29 -9 -77 -19 -108 -24 -69 -51 -245 -51 -331 0 -79 12 -95 103 -130 55 -21 84 -26 159 -26 108 0 179 19 308 83 78 39 85 44 85 72 1 17 4 47 9 68 11 50 -10 222 -39 317 -57 186 -139 340 -205 384 -22 14 -45 26 -52 26 -7 -1 -40 -15 -73 -33z m285 -567 c0 -114 -19 -149 -108 -194 -127 -64 -287 -84 -362 -46 -36 18 -40 24 -40 59 0 51 18 101 37 101 10 0 13 -5 8 -17 -4 -10 -10 -37 -12 -60 -5 -42 -4 -43 30 -58 73 -30 223 -8 338 50 64 33 79 63 79 165 0 64 3 80 15 80 12 0 15 -16 15 -80z"/>
  <!--11-->
  <path id="tooth111" onclick="chang1_yes(11)" d="M3072 869 c-23 -17 -51 -47 -61 -67 -11 -20 -31 -48 -45 -61 -26 -24 -26 -25 -26 -183 0 -153 -1 -160 -28 -215 -16 -32 -34 -67 -41 -78 -11 -17 -9 -27 14 -67 31 -56 56 -75 157 -123 l74 -35 188 2 189 3 41 79 41 78 3 162 c2 96 -1 185 -8 221 -24 119 -103 235 -201 293 -31 19 -51 22 -145 22 -105 -1 -111 -2 -152 -31z m8 -88 c0 -5 -11 -16 -25 -25 -17 -11 -25 -26 -25 -45 0 -33 -37 -121 -50 -121 -14 0 -12 44 2 58 7 7 15 36 18 64 4 43 9 55 30 65 29 15 50 17 50 4z m355 -51 c4 -19 25 -59 46 -89 37 -51 39 -58 39 -128 0 -58 -3 -73 -15 -73 -12 0 -15 15 -15 71 0 66 -3 75 -39 127 -40 57 -60 120 -46 143 10 15 20 -2 30 -51z m-403 -475 c20 -17 42 -25 69 -25 23 0 63 -12 101 -31 47 -23 82 -33 136 -36 70 -5 74 -4 102 22 16 15 34 40 40 56 13 29 40 40 40 16 0 -8 -18 -39 -41 -70 l-40 -57 -80 0 c-71 0 -87 4 -149 35 -49 24 -83 35 -114 35 -36 0 -52 6 -81 31 -19 17 -32 35 -29 40 8 13 13 11 46 -16z"/>
 </g>
<g id="layer104" fill="#ffffff" stroke="none">
 <path d="M0 6000 l0 -6000 1573 1 c1275 1 1564 3 1527 13 -50 14 -89 33 -172 83 -42 25 -59 42 -68 68 l-11 34 -56 -20 c-66 -23 -140 -24 -167 -4 -11 8 -46 22 -78 31 -43 13 -64 25 -83 50 -15 19 -42 41 -62 49 -20 8 -53 30 -73 49 -21 19 -49 40 -62 46 -48 26 -78 62 -78 98 0 29 -3 33 -18 27 -9 -4 -40 -10 -67 -12 -46 -5 -56 -1 -130 44 -44 27 -102 57 -128 66 -31 10 -74 40 -122 82 -66 60 -80 78 -140 198 -59 116 -66 135 -58 162 9 29 6 33 -111 143 -67 62 -135 121 -153 132 -18 11 -39 33 -47 49 -36 69 -145 234 -226 341 -71 94 -94 134 -128 223 -39 101 -42 115 -42 208 0 113 -4 121 -86 159 -22 11 -48 28 -58 39 -22 24 -96 225 -96 259 0 14 -13 46 -29 71 -15 26 -36 80 -45 121 -10 41 -26 102 -36 135 -10 33 -27 95 -36 139 -14 59 -23 81 -39 88 -11 5 -37 35 -58 67 -33 51 -37 65 -37 122 0 45 -8 87 -29 144 -42 116 -66 168 -85 184 -19 16 -21 61 -4 107 10 28 8 37 -16 79 -19 32 -33 76 -42 138 -9 51 -30 142 -49 202 -35 112 -62 288 -64 405 0 36 6 126 15 200 13 112 23 158 63 270 97 271 140 463 141 622 0 79 20 149 68 241 35 65 35 101 3 300 -23 141 -31 221 -31 320 0 180 -28 361 -64 413 -39 57 -71 176 -102 383 l-27 185 17 85 c13 62 32 113 69 181 28 52 64 121 80 153 l29 58 -20 152 c-19 149 -19 154 -1 282 10 72 18 163 19 203 0 40 7 104 15 141 14 59 22 74 66 117 38 37 56 67 80 128 17 44 41 95 55 115 13 20 24 43 24 51 0 9 9 34 21 55 31 60 49 124 49 179 0 69 66 302 98 351 15 21 54 69 88 105 33 36 77 91 97 123 33 51 37 65 37 122 0 62 1 65 41 102 22 21 47 42 55 46 25 14 80 110 93 162 8 32 26 64 50 90 30 32 39 52 45 93 4 31 23 82 46 126 34 62 49 79 98 109 31 19 74 38 95 42 44 9 59 27 116 147 23 48 50 92 61 98 21 11 40 86 40 161 0 60 27 102 106 159 69 52 147 67 247 51 40 -7 87 -21 105 -32 21 -12 42 -17 58 -13 28 7 27 5 14 40 -8 21 -7 46 6 101 18 73 18 73 79 113 56 37 67 40 129 40 86 0 212 -35 250 -69 15 -14 48 -51 72 -83 34 -43 48 -55 64 -51 20 5 19 6 -2 37 -12 17 -39 46 -60 64 -32 28 -38 40 -38 72 0 35 6 44 76 107 83 74 85 75 194 109 l75 23 -1507 0 -1508 1 0 -6000z"/>
 <path d="M3911 11976 c66 -27 100 -50 152 -104 l38 -39 -3 -102 -3 -101 28 0 c27 0 27 0 27 68 0 67 1 69 43 110 41 40 46 42 102 42 33 -1 122 -16 197 -34 165 -39 237 -80 269 -149 25 -56 24 -121 -1 -163 -12 -18 -16 -35 -11 -38 5 -3 12 1 15 9 3 9 38 31 78 50 95 46 154 47 296 3 l104 -32 85 -90 c110 -118 153 -198 153 -290 0 -62 -14 -96 -41 -96 -5 0 -9 -4 -9 -9 0 -4 28 -14 63 -21 34 -7 73 -19 87 -26 14 -8 46 -22 71 -33 42 -17 52 -28 98 -109 36 -63 57 -114 68 -166 13 -60 21 -77 37 -82 41 -13 131 -86 179 -144 67 -84 187 -355 187 -424 0 -96 50 -187 159 -292 127 -121 149 -175 152 -377 l1 -117 34 -21 c34 -21 34 -21 34 -100 0 -76 1 -79 29 -93 76 -40 120 -146 155 -381 15 -104 30 -154 65 -223 14 -28 21 -60 21 -99 0 -45 9 -79 36 -143 19 -47 46 -122 59 -166 l24 -82 -20 -73 c-16 -65 -19 -111 -19 -380 0 -267 -3 -319 -20 -404 -11 -53 -17 -101 -14 -106 3 -6 1 -16 -5 -23 -6 -7 -18 -48 -27 -92 -9 -46 -30 -106 -50 -142 -19 -35 -41 -96 -50 -135 -8 -40 -24 -102 -34 -138 -26 -87 -26 -203 0 -289 11 -35 27 -114 36 -175 9 -66 29 -146 50 -200 47 -124 46 -189 -1 -316 -49 -131 -45 -210 16 -345 46 -100 97 -269 118 -384 19 -102 19 -108 1 -205 -21 -116 -47 -191 -118 -331 -53 -105 -122 -297 -122 -338 0 -13 9 -69 21 -125 l21 -102 -22 -97 c-11 -53 -27 -146 -35 -207 -16 -122 -56 -229 -138 -366 -41 -70 -44 -79 -46 -153 -2 -118 -43 -229 -105 -286 l-46 -43 0 -75 c0 -45 -6 -93 -16 -117 -13 -36 -24 -45 -94 -80 -53 -27 -79 -46 -80 -57 0 -10 -16 -35 -35 -57 -31 -33 -35 -45 -35 -90 0 -29 -7 -66 -16 -83 -9 -17 -22 -51 -30 -77 -18 -60 -90 -161 -114 -161 -11 0 -22 -10 -26 -22 -30 -98 -46 -128 -69 -128 -29 0 -36 -18 -34 -96 1 -68 -22 -138 -70 -207 -30 -43 -35 -47 -74 -47 -23 0 -75 -7 -115 -17 -67 -15 -77 -21 -113 -64 -39 -47 -39 -47 -22 -76 16 -29 16 -31 -15 -82 -34 -55 -38 -72 -22 -101 18 -34 19 -84 1 -125 -27 -62 -108 -140 -190 -185 -72 -39 -76 -40 -173 -40 l-99 0 -17 30 c-9 16 -20 30 -24 30 -3 0 -9 -19 -13 -43 -9 -53 -52 -135 -76 -142 -10 -4 -38 -22 -61 -42 -72 -60 -215 -113 -307 -113 -23 0 -55 -7 -72 -16 -16 -8 -38 -12 -48 -9 -12 4 -21 -2 -29 -20 -6 -14 -18 -25 -26 -25 -8 0 -39 -13 -70 -29 -52 -28 -135 -58 -216 -80 -22 -6 527 -10 1493 -10 l1527 -1 0 6000 0 6000 -1572 0 -1573 0 56 -24z"/>
 <path d="M3542 62 l-30 -62 141 1 142 0 -65 23 c-36 13 -79 29 -95 35 -17 6 -38 24 -47 38 l-16 27 -30 -62z"/>
 </g>
    <script type="text/javascript" src="https://ajax.googleapis.com/ajax/libs/jquery/1.7.2/jquery.min.js">
    <![CDATA[
        function chang1_yes(id) {
            $("#tooth1"+id).css({'visibility': 'hidden'});
            if($("input[name ='Toothcase[tooth_1]']").val() == ''){
                $("input[name ='Toothcase[tooth_1]']").val(id);
            }else{
                $("input[name ='Toothcase[tooth_1]']").val($("input[name ='Toothcase[tooth_1]']").val() + ',' + id);
            }
        }
        function chang1_no(id) {
            $("#tooth1"+id).removeAttr("style");
            val = $("input[name ='Toothcase[tooth_1]']").val().split(",");
            for(var i=0; i<val.length; i++) {
                if(arr[i] == id) {
                    val.splice(i, 1);
                    break;
                }
            }
            $("input[name ='Toothcase[tooth_1]']").val(val.join(','));
        }
    ]]>
    </script>
</svg>
